<?xml version="1.0" encoding="UTF-8" standalone="no"?>
<!-- Created with Inkscape (http://www.inkscape.org/) -->

<svg
   width="149.17212mm"
   height="39.802662mm"
   viewBox="0 0 149.17212 39.802662"
   version="1.1"
   id="svg1"
   xml:space="preserve"
   inkscape:version="1.3.1 (9b9bdc1480, 2023-11-25, custom)"
   sodipodi:docname="hoe-het-werkt.svg"
   xmlns:inkscape="http://www.inkscape.org/namespaces/inkscape"
   xmlns:sodipodi="http://sodipodi.sourceforge.net/DTD/sodipodi-0.dtd"
   xmlns="http://www.w3.org/2000/svg"
   xmlns:svg="http://www.w3.org/2000/svg"><sodipodi:namedview
     id="namedview1"
     pagecolor="#ffffff"
     bordercolor="#000000"
     borderopacity="0.25"
     inkscape:showpageshadow="2"
     inkscape:pageopacity="0.0"
     inkscape:pagecheckerboard="0"
     inkscape:deskcolor="#d1d1d1"
     inkscape:document-units="mm"
     inkscape:zoom="1.9670091"
     inkscape:cx="281.90007"
     inkscape:cy="115.65783"
     inkscape:window-width="1862"
     inkscape:window-height="1011"
     inkscape:window-x="0"
     inkscape:window-y="0"
     inkscape:window-maximized="1"
     inkscape:current-layer="layer1" /><defs
     id="defs1" /><g
     inkscape:label="fiets en twee"
     inkscape:groupmode="layer"
     id="layer1"
     transform="translate(266.52357,243.1408)"
     style="display:inline"><g
       id="g17"
       style="opacity:0.5"><path
         style="display:inline;fill:#d0d0d0;fill-opacity:1"
         d="m -169.84065,-203.34515 c 2.60641,-0.0248 0.52684,0.0248 0,0 z m 11.23758,-1e-5 c 2.07627,-0.0169 2.02938,0.0205 0,0 z m -16.31307,-0.0249 c 0.94011,-0.0281 0.19292,0.0283 0,0 z m 25.13627,-8e-5 c 1.80551,-0.0284 0.36102,0.0284 0,0 z m -27.875,-0.0247 c 0.58315,-0.0319 0.1163,0.032 0,0 z m 33.8125,-2.5e-4 c 1.41661,-0.0284 0.28321,0.0284 0,0 z m -35.81184,-0.0247 c 0.44076,-0.0346 0.0916,0.0353 0,0 z m 40.94934,-3.4e-4 c 1.36105,-0.0284 0.2721,0.0284 0,0 z m -42.6125,-0.0245 c 0.41638,-0.0353 0.0827,0.0355 0,0 z m 47.3125,-4.5e-4 c 1.24993,-0.0284 0.24987,0.0284 0,0 z m -48.64955,-0.0245 c 0.32973,-0.0346 0.069,0.0356 0,0 z m 53.11341,-5.5e-4 c 1.16223,-0.0282 0.23752,0.0283 0,0 z m -54.27602,-0.0243 c 0.27438,-0.0357 0.0574,0.0371 0,0 z m 58.55102,-7.3e-4 c 1.16223,-0.0282 0.23752,0.0283 0,0 z m -59.58886,-0.024 c 0.24974,-0.0374 0.0483,0.0382 0,0 z m 63.78886,-0.001 c 1.16223,-0.0282 0.23752,0.0283 0,0 z m -64.71386,-0.024 c 0.24939,-0.0375 0.0488,0.0382 0,0 z m -0.82471,-0.025 c 0.21923,-0.0364 0.0453,0.0387 0,0 z m -0.76279,-0.0246 c 0.19362,-0.0388 0.0372,0.0401 0,0 z m -0.675,-0.025 c 0.19366,-0.0388 0.0372,0.0401 0,0 z m -73.41875,-0.025 c -2.66853,0.64415 -7.92963,-0.942 -2.47495,-1.80448 9.06069,-2.47878 18.66159,-3.72558 27.20847,-7.60898 10.4929,2.17159 21.25029,3.02107 31.59152,5.8545 0.61833,0.11642 2.33231,0.94456 0.9438,1.2428 -8.08585,1.62094 -16.45295,1.03943 -24.65787,1.3648 -12.27002,0.12759 -24.54216,-0.0114 -36.81195,0.0941 0.88823,0.92582 3.4326,0.14339 4.94558,0.41056 17.91326,-0.17971 35.88374,0.52698 53.75555,-0.86872 1.17537,-0.19387 4.62182,-0.28043 3.4876,-1.98975 -4.12165,-2.00246 -8.88939,-2.2811 -13.33759,-3.2128 -6.39914,-1.14193 -13.37823,-1.97896 -19.38036,-3.34884 1.71635,-2.36423 -1.46716,-4.1824 2.52273,-4.043 6.36404,-1.01099 12.91743,-1.22802 19.09524,-3.11905 1.15347,-1.31152 -1.52442,-1.4634 -2.44995,-1.61684 -5.71229,-0.92731 -11.60393,-0.87642 -17.24545,-2.25233 -0.90779,-0.59601 1.02447,-0.98826 1.56669,-1.31039 0.73782,-0.30729 2.64675,-0.86351 1.83356,-1.86564 -3.35986,-1.52478 -7.75847,-1.29122 -10.92536,-2.01557 13.42051,-1.26369 27.06669,-0.87681 40.38302,1.3321 6.68327,0.83722 0.0941,4.9472 -2.90001,5.54797 -4.43355,0.38244 -5.82493,4.0184 -0.83754,4.79546 3.59393,1.19995 7.84717,1.29573 6.38695,5.99308 0.12959,1.67584 0.95581,3.14939 1.72815,4.55882 1.88797,5.1056 -2.68245,2.76175 -6.17888,3.40194 -19.41213,0.42712 -38.83439,0.4601 -58.24895,0.46027 z m 72.79423,-4e-5 c 0.16495,-0.0369 0.0317,0.0414 0,0 z m -0.6,-0.025 c 0.16495,-0.0369 0.0317,0.0414 0,0 z m -0.53798,-0.0242 c 0.13768,-0.0406 0.025,0.0437 0,0 z m -0.49844,-0.0255 c 0.10956,-0.0357 0.0108,0.0481 0,0 z m -0.90156,-0.0495 c 0.13768,-0.0406 0.025,0.0437 0,0 z m 21.37671,-0.0272 c 2.55086,-0.0248 0.51572,0.0248 0,0 z m 11.20009,-1e-5 c 2.07627,-0.0169 2.02938,0.0205 0,0 z m -33.35024,-0.0233 c 0.10956,-0.0357 0.0108,0.0481 0,0 z m 17.06094,-0.002 c 0.97214,-0.0284 0.19427,0.0284 0,0 z m 25.10159,-10e-5 c 1.82872,-0.0283 0.37113,0.0283 0,0 z m -27.86311,-0.0248 c 0.66256,-0.0315 0.13689,0.0317 0,0 z m 33.83801,-1.6e-4 c 1.49545,-0.0282 0.30437,0.0283 0,0 z m -35.82574,-0.0247 c 0.4977,-0.0312 0.10085,0.0318 0,0 z m 40.97561,-2.6e-4 c 1.16223,-0.0282 0.23752,0.0283 0,0 z m -42.58942,-0.0244 c 0.39266,-0.0365 0.0728,0.0362 0,0 z m 47.25056,-6.1e-4 c 1.24993,-0.0284 0.24987,0.0284 0,0 z m -48.625,-0.0244 c 0.36072,-0.0355 0.0715,0.0358 0,0 z m 52.825,0.002 c 0.13768,-0.0406 0.025,0.0437 0,0 z m 0.3125,-0.002 c 0.97214,-0.0284 0.19427,0.0284 0,0 z m 0.68906,0.002 c 0.10956,-0.0357 0.0108,0.0481 0,0 z m -54.96372,-0.0259 c 0.27445,-0.0353 0.0573,0.0368 0,0 z m 58.49966,-7.2e-4 c 1.19437,-0.0284 0.23875,0.0284 0,0 z m -59.5375,-0.024 c 0.24974,-0.0374 0.0483,0.0382 0,0 z m 63.75,-0.001 c 1.13881,-0.0284 0.22763,0.0284 0,0 z m -64.64971,-0.024 c 0.21923,-0.0364 0.0453,0.0387 0,0 z m -0.85029,-0.0239 c 0.13768,-0.0406 0.025,0.0437 0,0 z m -0.7625,-0.0257 c 0.19366,-0.0388 0.0372,0.0401 0,0 z m -0.67452,-0.0251 c 0.16495,-0.0369 0.0317,0.0414 0,0 z m -1.21298,-0.0492 c 0.13768,-0.0406 0.025,0.0437 0,0 z m -0.55,-0.025 c 0.13768,-0.0406 0.025,0.0437 0,0 z m -0.94844,-0.0505 c 0.10956,-0.0357 0.0108,0.0481 0,0 z m -0.45156,-0.0245 c 0.13768,-0.0406 0.025,0.0437 0,0 z m -0.39844,-0.0255 c 0.10956,-0.0357 0.0108,0.0481 0,0 z m -0.75,-0.05 c 0.10956,-0.0357 0.0108,0.0481 0,0 z m -1.65647,-0.13437 c -2.18808,1.52968 -3.82048,-3.20139 -2.0576,-2.25151 3.72815,2.93407 10.84341,2.88176 13.58554,-1.67718 0.78131,-0.72655 0.79526,-3.05338 2.33825,-1.77623 3.25211,0.52067 6.65284,4.32715 1.13847,4.47865 -4.94652,0.82417 -10.01346,1.07743 -15.00466,1.22627 z m 32.05647,-0.49063 c 0.10956,-0.0357 0.0108,0.0481 0,0 z m 0.85,0 c 0.10956,-0.0357 0.0108,0.0481 0,0 z m 35.51719,-0.20792 c 0.18638,-0.18181 -0.12772,0.17881 0,0 z m -64.875,-0.0161 c -4.11477,-0.46593 1.75494,-0.0619 3.24385,-0.88165 2.21371,-0.73962 4.11532,-2.57075 4.71537,-4.85234 1.34782,0.017 -0.17881,1.71895 -0.44648,2.35029 -1.57729,2.51672 -4.64033,3.59121 -7.51274,3.3837 z m 64.25931,-0.32762 c 0.0318,-0.0552 0.0801,0.15374 0,0 z m -65.87181,-0.43748 c -2.72504,0.34026 -5.36129,-2.29686 -4.31191,-5.02829 0.22939,-1.22918 0.18463,-3.48915 1.19373,-3.99241 4.0362,1.3334 8.40201,2.3126 12.2476,3.88885 -1.01145,3.8746 -5.43282,5.54328 -9.12942,5.13185 z m 24.53512,-1.82502 c -0.18139,-0.19174 0.21784,0.1817 0,0 z m -0.73831,-0.1125 c 0.0318,-0.0552 0.0801,0.15374 0,0 z m 0.625,0 c 0.0318,-0.0552 0.0801,0.15374 0,0 z m -0.1,-0.1 c 0.0317,-0.0552 0.0801,0.15356 0,0 z m 11.75319,0.0343 c 0.004,-0.11775 0.1282,0.0141 0,0 z m -10.87819,-0.13431 c 0.0316,-0.0552 0.0802,0.15357 0,0 z m 11.07819,-0.0657 c 0.004,-0.11742 0.12756,0.0139 0,0 z m 28.42697,-0.0802 c 0.0361,-0.0666 0.0111,0.10773 0,0 z m -39.79185,-0.14166 c -0.18149,-0.19184 0.21783,0.1813 0,0 z m 9.60238,0.006 c 0.18638,-0.18181 -0.12772,0.17881 0,0 z m -39.49495,-0.175 c -1.2464,-2.12908 -1.84414,-5.00447 -0.93335,-7.25777 1.00762,1.45096 -0.40726,4.657 0.77923,6.67018 -0.0861,-0.4937 0.36508,1.04912 0.15412,0.58759 z m 72.28442,0.0104 c 0.0361,-0.0666 0.0111,0.10773 0,0 z m -2.625,-0.1 c 0.0361,-0.0666 0.0111,0.10773 0,0 z m 0.45198,-0.0354 c 0.0219,-0.11256 0.0218,0.1128 0,0 z m -40.03214,-0.16875 c 0.0316,-0.0552 0.0802,0.15357 0,0 z m 42.23016,-0.0208 c 0.0361,-0.0666 0.0111,0.10773 0,0 z m -2.67016,-0.41041 c 0.0191,-0.20074 0.0191,0.2005 0,0 z m 2.69516,0.0354 c 0.0361,-0.0666 0.0111,0.10773 0,0 z m -2.24567,-0.0729 c 0.0239,-0.16332 0.0155,0.19417 0,0 z m 1.79567,0.0479 c 0.0361,-0.0666 0.0111,0.10773 0,0 z m 0.475,-0.4 c 0.0361,-0.0666 0.0111,0.10773 0,0 z m -0.44802,-0.0354 c 0.0219,-0.11256 0.0218,0.1128 0,0 z m -71.82655,-0.24123 c -0.70282,-1.49813 -0.46816,-7.41473 0.81134,-4.67122 -0.54484,1.48998 -0.66922,3.37809 -0.81134,4.67122 z m 72.30247,-0.27127 c 0.0273,-0.1188 0.0147,0.15058 0,0 z m -47.95487,-0.39694 c 0.004,-0.11759 0.12783,0.0137 0,0 z m 47.9813,-0.27806 c 0.0239,-0.16332 0.0155,0.19417 0,0 z m -0.4505,-0.0375 c 0.02,-0.15657 0.0201,0.15634 0,0 z m -49.90899,-0.14375 c 0.0316,-0.0552 0.0802,0.15357 0,0 z m -3.01984,-0.34584 c 0.0361,-0.0666 0.0111,0.10773 0,0 z m 51.05603,-0.26041 c 0.0179,-0.28938 0.0179,0.28914 0,0 z m -0.45,-0.025 c 0.0179,-0.28938 0.0179,0.28926 0,0 z m -44.03925,-0.0416 c 0.13768,-0.0406 0.025,0.0437 0,0 z m 2.06284,-10e-4 c 0.27445,-0.0353 0.0573,0.0368 0,0 z m -2.73628,-0.0241 c 0.10956,-0.0357 0.0108,0.0481 0,0 z m 3.58642,-2.5e-4 c 0.16495,-0.0369 0.0317,0.0414 0,0 z m -9.94958,-0.12017 c 0.022,-0.20732 0.0156,0.23868 0,0 z m 10.54958,0.0952 c 0.16495,-0.0369 0.0317,0.0414 0,0 z m -10.10043,-0.0952 c 0.0239,-0.16332 0.0155,0.19417 0,0 z m 10.63745,0.0709 c 0.13768,-0.0406 0.025,0.0437 0,0 z m 42.78982,-0.17094 c 0.0195,-0.33967 0.0157,0.37253 0,0 z m -41.93982,0.12094 c 0.13768,-0.0406 0.025,0.0437 0,0 z m 41.489,-0.12094 c 0.0208,-0.2514 0.0156,0.28321 0,0 z m -52.17788,0.05 c 0.0273,-0.1188 0.0147,0.15058 0,0 z m 11.06544,0.0454 c 0.10956,-0.0357 0.0108,0.0481 0,0 z m 0.35,-0.025 c 0.10956,-0.0357 0.0108,0.0481 0,0 z m -11.86636,-0.0579 c 0.0219,-0.11256 0.0218,0.1128 0,0 z m 8.31636,-0.21708 c 0.10956,-0.0357 0.0108,0.0481 0,0 z m 0.81142,-0.0252 c 0.16495,-0.0369 0.0317,0.0414 0,0 z m 0.61202,-0.0242 c 0.13768,-0.0406 0.025,0.0437 0,0 z m -4.89844,-0.0255 c 0.10956,-0.0357 0.0108,0.0481 0,0 z m 5.42344,5.2e-4 c 0.13768,-0.0406 0.025,0.0437 0,0 z m 0.45156,-0.0255 c 0.10956,-0.0357 0.0108,0.0481 0,0 z m -14.44334,-0.37251 c 0.0361,-0.0666 0.0111,0.10773 0,0 z m 54.48052,-0.18541 c 0.0184,-0.24479 0.0184,0.24503 0,0 z m -0.45,-0.025 c 0.0184,-0.2448 0.0184,0.24503 0,0 z m -54.85068,-0.175 c 0.0191,-0.20074 0.0191,0.20062 0,0 z m 10.97016,0.0604 c 0.0361,-0.0666 0.0111,0.10773 0,0 z m -11.42117,-0.0604 c 0.02,-0.15657 0.0201,0.15634 0,0 z m 29.0022,-0.075 c 0.0179,-0.28914 0.0179,0.28938 0,0 z m -27.24899,-0.125 c 0.016,-0.42242 0.016,0.42242 0,0 z m 27.69874,0.0875 c 0.0208,-0.2514 0.0156,0.28321 0,0 z m -28.14902,-0.1125 c 0.0178,-0.37806 0.0178,0.37806 0,0 z m 12.09614,0.1125 c 0.0273,-0.1188 0.0147,0.15058 0,0 z m 0.45093,-0.0375 c 0.0201,-0.15633 0.02,0.15657 0,0 z m 13.34617,-0.0146 c 0.0361,-0.0666 0.0111,0.10773 0,0 z m -13.3471,-0.47291 c 0.0273,-0.1188 0.0147,0.15058 0,0 z m 13.82926,-0.175 c 0.0173,-0.42798 0.0145,0.46169 0,0 z m -14.27833,0.1375 c 0.0201,-0.15634 0.02,0.15657 0,0 z m 13.82821,-0.15 c 0.016,-0.42242 0.016,0.42242 0,0 z m 30.39874,-0.5125 c 0.0208,-0.2514 0.0156,0.28321 0,0 z m 0.45065,-0.0625 c 0.0178,-0.33353 0.0177,0.33377 0,0 z m -49.5334,0.14056 c 0.004,-0.11742 0.12756,0.0139 0,0 z m 49.07697,-0.28015 c 0.0361,-0.0666 0.0111,0.10773 0,0 z m -46.68016,-0.20416 c 0.0317,-0.0552 0.0801,0.15356 0,0 z m 25.95944,-0.27495 c 1.63884,-0.0284 0.32767,0.0284 0,0 z m -2.125,-0.0242 c 0.30513,-0.0364 0.0602,0.0368 0,0 z m 5.475,-4.7e-4 c 0.52758,-0.0319 0.10515,0.032 0,0 z m -6.2375,-0.0232 c 0.13768,-0.0406 0.025,0.0437 0,0 z m 7.89944,-0.001 c 0.39266,-0.0365 0.0728,0.0362 0,0 z m 1.35101,-0.0251 c 0.32973,-0.0346 0.069,0.0356 0,0 z m 1.18739,-0.0248 c 0.27438,-0.0357 0.0574,0.0371 0,0 z m 1.06245,-0.0247 c 0.21923,-0.0364 0.0453,0.0387 0,0 z m 1.03755,-0.0253 c 0.27445,-0.0353 0.0573,0.0368 0,0 z m 11.04736,-0.0321 c 0.0219,-0.11256 0.0218,0.1128 0,0 z m -10.0602,0.007 c 0.24974,-0.0374 0.0483,0.0382 0,0 z m 0.93784,-0.0253 c 0.27445,-0.0353 0.0573,0.0368 0,0 z m 9.57038,-0.0216 c 0.0361,-0.0666 0.0111,0.10773 0,0 z m -8.65822,-0.003 c 0.24939,-0.0375 0.0488,0.0382 0,0 z m -41.89694,-0.0511 c 0.0316,-0.0552 0.0802,0.15357 0,0 z m 42.82194,0.0261 c 0.24974,-0.0374 0.0483,0.0382 0,0 z m 0.92529,-0.025 c 0.21923,-0.0364 0.0453,0.0387 0,0 z m 0.93755,-0.0253 c 0.27445,-0.0353 0.0573,0.0368 0,0 z m -15.27381,-0.15077 c 1.60653,-0.0282 0.32663,0.0283 0,0 z m -2.10153,-0.0242 c 0.30513,-0.0364 0.0602,0.0368 0,0 z m 5.45075,-5e-4 c 0.4977,-0.0312 0.10085,0.0318 0,0 z m -6.25075,-0.0238 c 0.19366,-0.0388 0.0372,0.0401 0,0 z m 7.88694,-8.1e-4 c 0.39266,-0.0365 0.0728,0.0362 0,0 z m -8.42444,-0.0235 c 0.13768,-0.0406 0.025,0.0437 0,0 z m 9.75045,-0.002 c 0.32973,-0.0346 0.069,0.0356 0,0 z m -102.4192,-0.0163 c 0.004,-0.11727 0.12718,0.0135 0,0 z m 92.24531,-0.008 c 0.10956,-0.0357 0.0108,0.0481 0,0 z m 11.36094,-8.3e-4 c 0.30513,-0.0364 0.0602,0.0369 0,0 z m 1.13779,-0.0248 c 0.21923,-0.0364 0.0453,0.0387 0,0 z m 0.98755,-0.0253 c 0.27438,-0.0357 0.0574,0.0371 0,0 z m 0.98716,-0.0247 c 0.24939,-0.0375 0.0488,0.0382 0,0 z m 0.9625,-0.0246 c 0.19366,-0.0388 0.0372,0.0401 0,0 z m 0.90034,-0.0257 c 0.27445,-0.0353 0.0573,0.0368 0,0 z m 0.91245,-0.0247 c 0.21923,-0.0364 0.0453,0.0387 0,0 z m 0.89971,-0.025 c 0.24974,-0.0374 0.0483,0.0382 0,0 z m 0.95,-0.025 c 0.24939,-0.0375 0.0488,0.0382 0,0 z m 1.90156,5.7e-4 c 0.10956,-0.0357 0.0108,0.0481 0,0 z m -47.2222,-0.25167 c -0.21579,-0.24561 0.2418,0.2439 0,0 z m -1.1263,-0.5 c 0.0291,-0.053 0.10628,0.13179 0,0 z m 23.95184,-0.05 c -0.30705,-0.33435 0.33106,0.33288 0,0 z m 9.1451,-0.0749 c 1.24993,-0.0284 0.24987,0.0284 0,0 z m -1.55,-0.024 c 0.24944,-0.0375 0.0488,0.0382 0,0 z m 3.4625,4.1e-4 c 0.19366,-0.0388 0.0372,0.0401 0,0 z m -4.24952,-0.0251 c 0.16495,-0.0369 0.0318,0.0414 0,0 z m 4.91202,7.7e-4 c 0.13768,-0.0406 0.025,0.0437 0,0 z m -5.58702,-0.0258 c 0.16495,-0.0369 0.0317,0.0414 0,0 z m -0.6,-0.025 c 0.16495,-0.0369 0.0318,0.0414 0,0 z m -0.53798,-0.0242 c 0.13768,-0.0406 0.025,0.0437 0,0 z m 7.95156,-5.2e-4 c 0.10956,-0.0357 0.0108,0.0481 0,0 z m -8.50156,-0.0245 c 0.13768,-0.0406 0.025,0.0437 0,0 z m 15.7625,-0.002 c 0.52758,-0.0319 0.10515,0.032 0,0 z m 1.22591,-1.2e-4 c 0.60707,-0.0314 0.12566,0.0317 0,0 z m -17.51185,-0.0236 c 0.10956,-0.0357 0.0108,0.0481 0,0 z m 15.33594,-1.6e-4 c 0.19362,-0.0388 0.0372,0.0401 0,0 z m 3.4625,-4.1e-4 c 0.24944,-0.0375 0.0488,0.0382 0,0 z m -19.35,-0.0239 c 0.13768,-0.0406 0.025,0.0437 0,0 z m 15.35156,-5.2e-4 c 0.10956,-0.0357 0.0108,0.0481 0,0 z m 4.78594,-1.6e-4 c 0.19362,-0.0388 0.0372,0.0401 0,0 z m -20.72452,-0.0251 c 0.16495,-0.0369 0.0318,0.0414 0,0 z m 15.51358,2.5e-4 c 0.10956,-0.0357 0.0108,0.0481 0,0 z m 5.91142,-2.5e-4 c 0.16495,-0.0369 0.0317,0.0414 0,0 z m -23.68642,-0.0247 c 0.10956,-0.0357 0.0108,0.0481 0,0 z m 1.56094,-1.6e-4 c 0.19366,-0.0388 0.0372,0.0401 0,0 z m 15.86406,1.6e-4 c 0.10956,-0.0357 0.0108,0.0481 0,0 z m 6.97373,-6e-4 c 0.21923,-0.0364 0.0453,0.0387 0,0 z m 1.47627,6e-4 c 0.10956,-0.0357 0.0108,0.0481 0,0 z m -17.22656,-0.20158 c 1.24993,-0.0284 0.24987,0.0284 0,0 z m -1.575,-0.0229 c 0.13768,-0.0406 0.025,0.0437 0,0 z m 0.12656,-5.2e-4 c 0.10956,-0.0357 0.0108,0.0481 0,0 z m 3.36142,-2.5e-4 c 0.16495,-0.0369 0.0317,0.0414 0,0 z m -4.26298,-0.0242 c 0.13768,-0.0406 0.025,0.0437 0,0 z m 4.875,0 c 0.13768,-0.0406 0.025,0.0437 0,0 z m -5.53702,-0.0258 c 0.16495,-0.0369 0.0318,0.0414 0,0 z m 6.03858,2.5e-4 c 0.10956,-0.0357 0.0108,0.0481 0,0 z m -36.8485,-0.0517 c 0.0317,-0.0552 0.0801,0.15356 0,0 z m 30.23492,0.0264 c 0.16495,-0.0369 0.0317,0.0414 0,0 z m -0.56298,-0.0242 c 0.13768,-0.0406 0.025,0.0437 0,0 z m -0.55,-0.025 c 0.13768,-0.0406 0.025,0.0437 0,0 z m 15.7625,-0.002 c 0.52758,-0.0319 0.10515,0.032 0,0 z m 1.1875,-5e-5 c 0.58315,-0.0319 0.1163,0.032 0,0 z m -17.48702,-0.0239 c 0.16495,-0.0369 0.0318,0.0414 0,0 z m 15.375,0 c 0.16495,-0.0369 0.0318,0.0414 0,0 z m 3.41231,-3.5e-4 c 0.21923,-0.0364 0.0453,0.0387 0,0 z m -19.32529,-0.0239 c 0.13768,-0.0406 0.025,0.0437 0,0 z m 20.08798,-7.7e-4 c 0.16495,-0.0369 0.0317,0.0414 0,0 z m -20.68798,-0.0242 c 0.13768,-0.0406 0.025,0.0437 0,0 z m 15.52656,-5.2e-4 c 0.10956,-0.0357 0.0108,0.0481 0,0 z m 5.83594,-1.6e-4 c 0.19362,-0.0388 0.0372,0.0401 0,0 z m -23.66094,-0.0248 c 0.10956,-0.0357 0.0108,0.0481 0,0 z m 1.6,0 c 0.10956,-0.0357 0.0108,0.0481 0,0 z m 22.79873,-6e-4 c 0.21923,-0.0364 0.0453,0.0387 0,0 z m 1.55127,6e-4 c 0.10956,-0.0357 0.0108,0.0481 0,0 z m -110.65781,-0.2842 c -2.80046,-1.56011 -7.943,-5.42459 -2.45913,-7.4742 2.85804,-0.84778 4.30739,-3.56386 0.15908,-3.61068 -3.39856,-0.72608 2.58346,0.0931 4.02498,0.28869 1.37759,0.34251 3.48805,0.29768 4.37118,1.27221 -1.20984,0.9891 -3.22496,0.90325 -4.00754,2.35946 0.91073,1.46038 3.28434,1.05659 4.8364,1.47503 5.19988,0.80537 10.60866,0.68601 15.66603,2.11028 -4.588,1.77895 -9.70635,1.75343 -14.52464,2.59374 -2.68649,0.22396 -5.45118,0.9071 -8.06636,0.98547 z m 73.38561,-0.11747 c -0.21579,-0.24561 0.2418,0.2439 0,0 z m -29.72311,-0.0687 c 0.3289,-0.31402 -0.27011,0.31033 0,0 z m 15.04811,-0.23125 c -0.21574,-0.24561 0.2415,0.24386 0,0 z m 0.60054,-0.05 c -0.3173,-0.32523 0.3488,0.31644 0,0 z m -15.37365,0.006 c 0.23521,-0.22566 -0.17647,0.22225 0,0 z m 28.86012,-0.24375 c -0.16926,-0.20159 0.19676,0.19939 0,0 z m 16.69613,0.013 c 0.41638,-0.0353 0.0827,0.0355 0,0 z m 2.9977,-0.0818 c 0.0219,-0.11256 0.0218,0.1128 0,0 z m -50.70395,-0.10944 c 0.004,-0.11775 0.1282,0.0141 0,0 z m 48.625,0 c 0.004,-0.11775 0.1282,0.0141 0,0 z m -46.575,-0.1 c 0.004,-0.11742 0.12756,0.0139 0,0 z m 41.49404,-0.008 c 0.21923,-0.0364 0.0453,0.0387 0,0 z m 0.81221,4.4e-4 c 0.19366,-0.0388 0.0372,0.0401 0,0 z m 3.375,-0.15097 c 0.41638,-0.0353 0.0827,0.0355 0,0 z m -36.75944,-0.0505 c 0.0317,-0.0552 0.0801,0.15356 0,0 z m 5.8,0 c 0.0317,-0.0552 0.0801,0.15356 0,0 z m 30.5235,0.0267 c 0.10956,-0.0357 0.0108,0.0481 0,0 z m -47.40781,-0.25792 c 0.18648,-0.18178 -0.12804,0.17878 0,0 z m 43.15781,0.008 c 0.10956,-0.0357 0.0108,0.0481 0,0 z m 1.9,0 c 0.10956,-0.0357 0.0108,0.0481 0,0 z m -34.2485,-0.0517 c 0.0292,-0.0531 0.10617,0.13208 0,0 z m 32.85992,0.0264 c 0.16495,-0.0369 0.0317,0.0414 0,0 z m 0.81202,-3.2e-4 c 0.24974,-0.0374 0.0483,0.0382 0,0 z m -15.42344,-0.0494 c 0.10956,-0.0357 0.0108,0.0481 0,0 z m -17.78438,-0.16417 c -0.26154,-0.29014 0.28652,0.28804 0,0 z m 37.46088,0.0375 c 0.0317,-0.0552 0.0801,0.15356 0,0 z m -32.38588,-0.0875 c -0.27233,-0.28063 0.30539,0.2714 0,0 z m 28.95938,-0.0108 c 0.10956,-0.0357 0.0108,0.0481 0,0 z m 0.59844,-0.026 c 0.36072,-0.0355 0.0715,0.0358 0,0 z m 0.58784,1.5e-4 c 0.27438,-0.0357 0.0574,0.0371 0,0 z m -17.44986,-0.19939 c 0.16495,-0.0369 0.0317,0.0414 0,0 z m 31.07024,-0.0973 c 0.0361,-0.0666 0.0111,0.10773 0,0 z m -22.40386,-0.0542 c -0.21579,-0.24561 0.2418,0.2439 0,0 z m 2.35,-0.125 c -0.21574,-0.24561 0.24152,0.24389 0,0 z m 5.2222,0.0517 c 0.10956,-0.0357 0.0108,0.0481 0,0 z m -5.8735,-0.0517 c 0.0292,-0.0531 0.10617,0.13208 0,0 z m 6.47194,0.0257 c 0.36072,-0.0355 0.0715,0.0358 0,0 z m 0.6125,1.8e-4 c 0.30513,-0.0364 0.0602,0.0369 0,0 z m -8.94613,-0.0633 c -0.18145,-0.19192 0.21776,0.18144 0,0 z m -38.36012,-0.003 c 0.004,-0.11742 0.12756,0.0139 0,0 z m 0.65,0 c 0.004,-0.11775 0.1282,0.0141 0,0 z m 40.02311,-0.15931 c -0.21574,-0.24561 0.2415,0.24386 0,0 z m -40.47311,-0.0437 c 0.3289,-0.31402 -0.27011,0.31033 0,0 z m 15.42311,-0.0813 c -0.22696,-0.23627 0.26109,0.22685 0,0 z m -7.86638,-0.0736 c 0.16495,-0.0369 0.0318,0.0414 0,0 z m 0.475,0 c 0.16495,-0.0369 0.0317,0.0414 0,0 z m 4.07839,-0.18892 c -0.18149,-0.19193 0.21805,0.18148 0,0 z m 2.78799,-0.2375 c -0.21574,-0.24561 0.2415,0.24386 0,0 z m -7.35436,-0.0228 c 0.13768,-0.0406 0.025,0.0437 0,0 z m 0.5125,-6.8e-4 c 0.19362,-0.0388 0.0372,0.0401 0,0 z m 43.66875,-0.3172 c 0.004,-0.11775 0.1282,0.0141 0,0 z m 8.97697,-0.0551 c 0.0361,-0.0666 0.0111,0.10773 0,0 z m -46.38016,-0.15416 c 0.0317,-0.0552 0.0801,0.15356 0,0 z m 0.51331,-0.1375 c -0.16923,-0.20138 0.19672,0.19948 0,0 z m -7.51481,0.0142 c 0.10956,-0.0357 0.0108,0.0481 0,0 z m 0.1,0 c 0.10956,-0.0357 0.0108,0.0481 0,0 z m 0.46142,-2.5e-4 c 0.16495,-0.0369 0.0317,0.0414 0,0 z m 21.19524,-0.12226 c 0.0361,-0.0666 0.0111,0.10773 0,0 z m 5.41834,-0.0775 c 0.10956,-0.0357 0.0108,0.0481 0,0 z m -27.18906,-0.25016 c 0.19362,-0.0388 0.0372,0.0401 0,0 z m 0.5625,-4.1e-4 c 0.24944,-0.0375 0.0488,0.0382 0,0 z m 20.92806,-0.1011 c 0.0317,-0.0552 0.0801,0.15377 0,0 z m -17.8015,-0.0733 c 0.10956,-0.0357 0.0108,0.0481 0,0 z m 36.26562,-0.0642 c -0.26154,-0.29014 0.28652,0.28804 0,0 z m -13.66562,0.0392 c 0.10956,-0.0357 0.0108,0.0481 0,0 z m -27.625,-0.025 c 0.10956,-0.0357 0.0108,0.0481 0,0 z m 1.22344,5.2e-4 c 0.13768,-0.0406 0.025,0.0437 0,0 z m 6.87936,-0.0772 c -0.22708,-0.23617 0.26124,0.22646 0,0 z m 14.47554,-0.05 c -0.30705,-0.33435 0.33106,0.33288 0,0 z m 18.48728,-0.1125 c -0.26149,-0.29014 0.28623,0.28804 0,0 z m 0.68588,0.0375 c 0.0317,-0.0552 0.0801,0.15356 0,0 z m -33.83588,-0.0625 c -0.26154,-0.29014 0.28652,0.28804 0,0 z m 13.91088,0.0375 c 0.0318,-0.0553 0.0801,0.15374 0,0 z m -14.12316,-0.25 c -0.3173,-0.32523 0.3488,0.31644 0,0 z m -7.72834,0.0267 c 0.10956,-0.0357 0.0108,0.0481 0,0 z m 31.8515,-0.20167 c 0.0291,-0.053 0.10628,0.13179 0,0 z m 9.375,-0.1 c 0.0291,-0.053 0.10628,0.13179 0,0 z m -36.52181,-0.24069 c 0.004,-0.11742 0.12756,0.0139 0,0 z m 42.525,-0.11409 c 0.003,-0.10812 0.0767,0.0229 0,0 z m -14.075,-0.13591 c 0.004,-0.11775 0.1282,0.0141 0,0 z m 14.15873,-0.81556 c 0.0178,-0.37806 0.0178,0.37806 0,0 z m -0.45033,0 c 0.0178,-0.33353 0.0177,0.33377 0,0 z m -15.48143,-0.13959 c 0.0361,-0.0666 0.0111,0.10773 0,0 z m 2.60578,-0.14791 c 0.0208,-0.2514 0.0156,0.28321 0,0 z m -0.75288,-0.1 c 0.0273,-0.1188 0.0147,0.15058 0,0 z m -1.87357,-0.225 c 0.0239,-0.16332 0.0155,0.19417 0,0 z m 0.44857,0 c 0.0273,-0.1188 0.0147,0.15058 0,0 z m -17.70956,-0.0546 c 0.10956,-0.0357 0.0108,0.0481 0,0 z m -0.875,-0.075 c 0.10956,-0.0357 0.0108,0.0481 0,0 z m 19.98166,-0.0975 c 0.0361,-0.0666 0.0111,0.10773 0,0 z m -21.60822,-0.002 c 0.13768,-0.0406 0.025,0.0437 0,0 z m -2.66202,-0.0258 c 0.16495,-0.0369 0.0317,0.0414 0,0 z m 2.05,0 c 0.16495,-0.0369 0.0318,0.0414 0,0 z m 8.89327,-0.31539 c -1.17971,-0.0654 -0.54843,-0.10383 0,0 z m 13.30197,-0.0319 c 0.0361,-0.0666 0.0111,0.10773 0,0 z m -21.05822,-0.052 c 0.13768,-0.0406 0.025,0.0437 0,0 z m 5.90029,-0.001 c 0.21923,-0.0364 0.0453,0.0387 0,0 z m -6.37373,-0.0244 c 0.10956,-0.0357 0.0108,0.0481 0,0 z m 5.56094,-1.6e-4 c 0.19362,-0.0388 0.0372,0.0401 0,0 z m -8.2875,-0.0243 c 0.13768,-0.0406 0.025,0.0437 0,0 z m 2.05,0 c 0.13768,-0.0406 0.025,0.0437 0,0 z m 4.8375,-0.0257 c 0.19366,-0.0388 0.0372,0.0401 0,0 z m -0.62452,-0.0251 c 0.16495,-0.0369 0.0317,0.0414 0,0 z m -0.625,-0.025 c 0.16495,-0.0369 0.0317,0.0414 0,0 z m -0.625,-0.025 c 0.16495,-0.0369 0.0317,0.0414 0,0 z m -0.58798,-0.0242 c 0.13768,-0.0406 0.025,0.0437 0,0 z m -0.59844,-0.0255 c 0.10956,-0.0357 0.0108,0.0481 0,0 z m -0.53858,-0.0252 c 0.16495,-0.0369 0.0317,0.0414 0,0 z m -0.575,-0.025 c 0.16495,-0.0369 0.0318,0.0414 0,0 z m -0.575,-0.025 c 0.16495,-0.0369 0.0317,0.0414 0,0 z m -0.56298,-0.0242 c 0.13768,-0.0406 0.025,0.0437 0,0 z m -0.56202,-0.0258 c 0.16495,-0.0369 0.0317,0.0414 0,0 z m -0.56298,-0.0242 c 0.13768,-0.0406 0.025,0.0437 0,0 z m -0.56202,-0.0258 c 0.16495,-0.0369 0.0317,0.0414 0,0 z m 35.07024,-0.0223 c 0.0361,-0.0666 0.0111,0.10773 0,0 z m -35.63166,-0.002 c 0.10956,-0.0357 0.0108,0.0481 0,0 z m 36.08166,-0.0225 c 0.0361,-0.0666 0.0111,0.10773 0,0 z m -36.88166,-0.002 c 0.10956,-0.0357 0.0108,0.0481 0,0 z m 11.82344,-10e-4 c 0.80542,-0.032 0.16085,0.032 0,0 z m -1.22471,-0.0241 c 0.21923,-0.0364 0.0453,0.0387 0,0 z m -0.81279,-0.0246 c 0.19362,-0.0388 0.0372,0.0401 0,0 z m -0.725,-0.025 c 0.19366,-0.0388 0.0372,0.0401 0,0 z m -0.67452,-0.0251 c 0.16495,-0.0369 0.0317,0.0414 0,0 z m 15.97508,-0.0827 c 0.0191,-0.2005 0.0191,0.20074 0,0 z m 2.07016,0.0604 c 0.0361,-0.0666 0.0111,0.10773 0,0 z m -18.67024,-0.003 c 0.16495,-0.0369 0.0317,0.0414 0,0 z m 16.15008,-0.0827 c 0.0191,-0.20074 0.0191,0.2005 0,0 z m -17.38806,0.0334 c 0.13768,-0.0406 0.025,0.0437 0,0 z m 19.1602,-0.0334 c 0.0219,-0.11256 0.0218,0.1128 0,0 z m -19.75864,0.008 c 0.10956,-0.0357 0.0108,0.0481 0,0 z m 8.15,0 c 0.10956,-0.0357 0.0108,0.0481 0,0 z m -8.71358,-0.0252 c 0.16495,-0.0369 0.0317,0.0414 0,0 z m -0.575,-0.025 c 0.16495,-0.0369 0.0318,0.0414 0,0 z m -0.575,-0.025 c 0.16495,-0.0369 0.0317,0.0414 0,0 z m -0.56298,-0.0242 c 0.13768,-0.0406 0.025,0.0437 0,0 z m -0.575,-0.025 c 0.13768,-0.0406 0.025,0.0437 0,0 z m -0.55,-0.025 c 0.13768,-0.0406 0.025,0.0437 0,0 z m -0.575,-0.025 c 0.13768,-0.0406 0.025,0.0437 0,0 z m -0.56202,-0.0258 c 0.16495,-0.0369 0.0317,0.0414 0,0 z m -0.62548,-0.0249 c 0.19362,-0.0388 0.0372,0.0401 0,0 z m 36.0977,-0.0328 c 0.0219,-0.11256 0.0218,0.1128 0,0 z m -37.22222,0.008 c 0.16495,-0.0369 0.0317,0.0414 0,0 z m 26.77542,-0.29517 c 0.022,-0.20732 0.0156,0.23868 0,0 z m -0.74895,-0.15 c 0.0197,-0.29552 0.0154,0.32792 0,0 z m -1.72833,-0.025 c 0.0273,-0.1188 0.0147,0.15058 0,0 z m 0.44908,0.0125 c 0.0219,-0.11256 0.0218,0.1128 0,0 z m -11.87236,-0.16794 c 0.27445,-0.0353 0.0573,0.0368 0,0 z m 0.53716,2.9e-4 c 0.24974,-0.0374 0.0483,0.0382 0,0 z m 23.78945,-0.14485 c 0.0197,-0.29552 0.0154,0.32792 0,0 z m -0.72357,-0.3875 c 0.016,-0.55571 0.016,0.55571 0,0 z m -12.15568,0.175 c 0.0219,-0.11256 0.0218,0.1128 0,0 z m -11.4602,-0.0926 c 0.24939,-0.0375 0.0488,0.0382 0,0 z m 0.6,0 c 0.24944,-0.0375 0.0488,0.0382 0,0 z m 11.33322,-0.29694 c 0.0361,-0.0666 0.0111,0.10773 0,0 z m 12.40603,-0.33541 c 0.0179,-0.28914 0.0179,0.28938 0,0 z m -12.38103,-0.0146 c 0.0361,-0.0666 0.0111,0.10773 0,0 z m -0.45,-0.025 c 0.0361,-0.0666 0.0111,0.10773 0,0 z m -22.94567,-0.14791 c 0.0239,-0.16332 0.0155,0.19417 0,0 z m 25.01245,0.0709 c 0.13768,-0.0406 0.025,0.0437 0,0 z m -25.46678,-0.073 c 0.0361,-0.0666 0.0111,0.10773 0,0 z m 23.425,-0.175 c 0.0361,-0.0666 0.0111,0.10773 0,0 z m 12.05,-0.25 c 0.0361,-0.0666 0.0111,0.10773 0,0 z m 7.26678,0.023 c 0.13768,-0.0406 0.025,0.0437 0,0 z m 0.7125,-6.8e-4 c 0.19366,-0.0388 0.0372,0.0401 0,0 z m -7.20428,-0.12235 c 0.0361,-0.0666 0.0111,0.10773 0,0 z m -12.325,-0.2 c 0.0361,-0.0666 0.0111,0.10773 0,0 z m 18.85476,-0.12774 c 0.16495,-0.0369 0.0317,0.0414 0,0 z m 0.675,0 c 0.16495,-0.0369 0.0318,0.0414 0,0 z m -1.08642,-0.0248 c 0.10956,-0.0357 0.0108,0.0481 0,0 z m -6.91834,-0.0475 c 0.0361,-0.0666 0.0111,0.10773 0,0 z m -33.83322,-0.35306 c 0.24944,-0.0375 0.0488,0.0382 0,0 z m 0.56284,-2.9e-4 c 0.27438,-0.0357 0.0574,0.0371 0,0 z m -1.08628,-0.0241 c 0.10956,-0.0357 0.0108,0.0481 0,0 z m 1.675,0 c 0.10956,-0.0357 0.0108,0.0481 0,0 z m -65.19136,-0.30792 c 0.0219,-0.11256 0.0218,0.1128 0,0 z m 1.74136,-0.0171 c 0.10956,-0.0357 0.0108,0.0481 0,0 z m 0.625,-0.05 c 0.10956,-0.0357 0.0108,0.0481 0,0 z m 0.35,-0.025 c 0.10956,-0.0357 0.0108,0.0481 0,0 z m 61.33628,-0.0259 c 0.27445,-0.0353 0.0573,0.0368 0,0 z m 0.53716,2.9e-4 c 0.24974,-0.0374 0.0483,0.0382 0,0 z m 0.57656,-0.0244 c 0.10956,-0.0357 0.0108,0.0481 0,0 z m -5.05,-0.3 c 0.10956,-0.0357 0.0108,0.0481 0,0 z m 7.38166,-0.0225 c 0.0361,-0.0666 0.0111,0.10773 0,0 z m -65.78166,-0.002 c 0.10956,-0.0357 0.0108,0.0481 0,0 z m 0.625,-0.05 c 0.10956,-0.0357 0.0108,0.0481 0,0 z m 0.7,-0.05 c 0.10956,-0.0357 0.0108,0.0481 0,0 z m 0.375,-0.025 c 0.10956,-0.0357 0.0108,0.0481 0,0 z m 60.86142,-0.0753 c 0.16495,-0.0369 0.0317,0.0414 0,0 z m -59.28798,-0.0242 c 0.13768,-0.0406 0.025,0.0437 0,0 z m 0.425,-0.025 c 0.13768,-0.0406 0.025,0.0437 0,0 z m 0.45156,-0.0255 c 0.10956,-0.0357 0.0108,0.0481 0,0 z m 0.425,-0.025 c 0.10956,-0.0357 0.0108,0.0481 0,0 z m 0.44844,-0.0245 c 0.13768,-0.0406 0.025,0.0437 0,0 z m 0.475,-0.025 c 0.13768,-0.0406 0.025,0.0437 0,0 z m 0.47656,-0.0255 c 0.10956,-0.0357 0.0108,0.0481 0,0 z m 11.34889,-10e-4 c 0.32973,-0.0346 0.069,0.0356 0,0 z m -10.87389,-0.024 c 0.10956,-0.0357 0.0108,0.0481 0,0 z m 12.03594,-1.6e-4 c 0.19362,-0.0388 0.0372,0.0401 0,0 z m -11.54952,-0.0251 c 0.16495,-0.0369 0.0317,0.0414 0,0 z m 12.21202,7.7e-4 c 0.13768,-0.0406 0.025,0.0437 0,0 z m -11.71202,-0.0258 c 0.16495,-0.0369 0.0317,0.0414 0,0 z m 0.51358,-0.0247 c 0.10956,-0.0357 0.0108,0.0481 0,0 z m -9.01235,-0.0267 c 2.4953,-0.0248 0.50461,0.0248 0,0 z m 9.52377,0.001 c 0.16495,-0.0369 0.0317,0.0414 0,0 z m -11.08769,-0.0254 c 0.21923,-0.0364 0.0453,0.0387 0,0 z m 4.98796,-7.3e-4 c 0.4977,-0.0312 0.10085,0.0318 0,0 z m -5.46169,-0.0237 c 0.10956,-0.0357 0.0108,0.0481 0,0 z m 7.08594,-0.001 c 0.41638,-0.0353 0.0827,0.0355 0,0 z m 5.5375,0.002 c 0.13768,-0.0406 0.025,0.0437 0,0 z m 98.30822,-0.023 c 0.0361,-0.0666 0.0111,0.10773 0,0 z m -111.25666,-0.002 c 0.10956,-0.0357 0.0108,0.0481 0,0 z m 8.9491,-0.001 c 0.44076,-0.0346 0.0915,0.0353 0,0 z m 4.56232,0.001 c 0.16495,-0.0369 0.0317,0.0414 0,0 z m -2.88714,-0.0261 c 0.55161,-0.0313 0.11439,0.0318 0,0 z m 3.10541,-0.007 c -1.16586,-0.0545 1.47248,0.0299 0,0 z m 0.66875,-0.0181 c 0.36072,-0.0355 0.0715,0.0358 0,0 z m 51.15156,0.001 c 0.10956,-0.0357 0.0108,0.0481 0,0 z m 0.43642,-0.0252 c 0.16495,-0.0369 0.0317,0.0414 0,0 z m 1.325,0 c 0.16495,-0.0369 0.0318,0.0414 0,0 z m -42.95048,-0.57638 c 1.86108,-0.0249 0.37215,0.0249 0,0 z m 6.7,-0.025 c 1.86108,-0.0249 0.37215,0.0249 0,0 z m 6.7,-0.025 c 1.86107,-0.0284 0.37213,0.0284 0,0 z m 6.70159,-0.025 c 1.82872,-0.0283 0.37113,0.0283 0,0 z m 6.675,-0.025 c 1.82872,-0.0283 0.37113,0.0283 0,0 z m 6.625,-0.025 c 1.82872,-0.0283 0.37113,0.0283 0,0 z m 6.625,-0.025 c 1.82872,-0.0283 0.37113,0.0283 0,0 z m 22.93747,0.002 c 0.10956,-0.0357 0.0108,0.0481 0,0 z m -16.35156,-0.0266 c 1.80551,-0.0284 0.36102,0.0284 0,0 z m 15.7875,0.001 c 0.19366,-0.0388 0.0372,0.0401 0,0 z m -9.15,-0.0265 c 2.0833,-0.0249 0.4166,0.0249 0,0 z m 7.76348,1.8e-4 c 0.66256,-0.0314 0.13689,0.0318 0,0 z m -86.51973,-0.24105 c 0.0256,-0.0631 0.19922,0.0268 0,0 z m 25.48125,-0.009 c 1.86108,-0.0249 0.37215,0.0249 0,0 z m 6.72659,-0.025 c 1.82872,-0.0283 0.37113,0.0283 0,0 z m 6.67341,-0.025 c 1.86108,-0.0249 0.37215,0.0249 0,0 z m 6.73907,-0.025 c 1.77316,-0.0283 0.36003,0.0283 0,0 z m 6.63752,-0.025 c 1.82872,-0.0283 0.37113,0.0283 0,0 z m 6.65,-0.025 c 1.82872,-0.0283 0.37113,0.0283 0,0 z m 6.625,-0.025 c 1.82872,-0.0283 0.37113,0.0283 0,0 z m 22.98747,0.002 c 0.10956,-0.0357 0.0108,0.0481 0,0 z m -16.42656,-0.0266 c 1.80551,-0.0284 0.36102,0.0284 0,0 z m 15.8375,0.001 c 0.19362,-0.0388 0.0372,0.0401 0,0 z m -9.17337,-0.0265 c 2.05091,-0.0248 0.41566,0.0248 0,0 z m 7.79928,2.2e-4 c 0.60707,-0.0314 0.12566,0.0318 0,0 z m 17.34864,-0.0565 c 0.02,-0.15657 0.0201,0.15634 0,0 z m -4.00899,-0.41875 c 0.0316,-0.0552 0.0802,0.15357 0,0 z m 4.90978,-0.34919 c 0.27438,-0.0357 0.0574,0.0371 0,0 z m 0.0251,-0.44939 c 0.16495,-0.0369 0.0317,0.0414 0,0 z m -9.13642,-0.27475 c 0.10956,-0.0357 0.0108,0.0481 0,0 z m 8.21049,-0.20792 c 0.0201,-0.15634 0.02,0.15657 0,0 z m -8.18549,-0.24208 c 0.10956,-0.0357 0.0108,0.0481 0,0 z m -0.4,-0.025 c 0.10956,-0.0357 0.0108,0.0481 0,0 z m -0.475,-0.025 c 0.10956,-0.0357 0.0108,0.0481 0,0 z m 9.05666,-0.24751 c 0.0361,-0.0666 0.0111,0.10773 0,0 z m -0.48947,-1.58541 c 0.18638,-0.18181 -0.12772,0.17881 0,0 z m 0.53281,-0.29208 c 0.10956,-0.0357 0.0108,0.0481 0,0 z m -100.89531,-1.21736 c 0.004,-0.11727 0.12718,0.0135 0,0 z m 102.84681,-0.25931 c 0.0317,-0.0552 0.0801,0.15356 0,0 z m -0.1,-0.1 c 0.0318,-0.0553 0.0801,0.15374 0,0 z m -2.82181,-0.0141 c 0.20359,-0.21877 0.23059,-0.18746 0,0 z m -99.35,-0.35162 c 0.004,-0.11759 0.12783,0.0137 0,0 z m 0.175,-0.20306 c 0.23521,-0.22566 -0.17647,0.22225 0,0 z m 0.3625,-0.3875 c 0.18638,-0.18181 -0.12772,0.17881 0,0 z m 89.18125,-0.19156 c 0.13768,-0.0406 0.025,0.0437 0,0 z m 0.375,0 c 0.13768,-0.0406 0.025,0.0437 0,0 z m -89.23125,-0.10844 c 0.18638,-0.18181 -0.12772,0.17881 0,0 z m 0.1375,-0.10944 c 0.004,-0.11759 0.12783,0.0137 0,0 z m 5.92031,-2.30764 c 0.10956,-0.0357 0.0108,0.0481 0,0 z m 0.4,-0.05 c 0.10956,-0.0357 0.0108,0.0481 0,0 z m 0.2,-0.025 c 0.10956,-0.0357 0.0108,0.0481 0,0 z m 0.22344,-0.0245 c 0.13768,-0.0406 0.025,0.0437 0,0 z m 0.275,-0.025 c 0.13768,-0.0406 0.025,0.0437 0,0 z m 3.5,0 c 0.13768,-0.0406 0.025,0.0437 0,0 z m -3.18702,-0.0258 c 0.16495,-0.0369 0.0317,0.0414 0,0 z m 2.91358,2.5e-4 c 0.10956,-0.0357 0.0108,0.0481 0,0 z m -2.51406,-0.0252 c 0.19366,-0.0388 0.0372,0.0401 0,0 z m 2.125,0 c 0.19366,-0.0388 0.0372,0.0401 0,0 z m -1.30139,-0.0264 c 1.22677,-0.0287 0.23966,0.0286 0,0 z"
         id="path25" /><path
         id="path23"
         style="display:inline;fill:#a3a3a3;fill-opacity:1"
         d="m -259.32814,-204.09515 c 1.6125,-0.0169 1.56614,0.0205 0,0 z m 22.97478,3e-5 c 1.55099,-0.0282 0.3155,0.0283 0,0 z m 4.34849,-0.0249 c 0.91657,-0.0284 0.18315,0.0284 0,0 z m 2.9,-0.0249 c 0.69429,-0.0319 0.13858,0.032 0,0 z m 2.25084,-0.025 c 0.55161,-0.0313 0.11439,0.0318 0,0 z m 1.83741,-0.0249 c 0.4977,-0.0312 0.10085,0.0318 0,0 z m 1.57425,-0.0248 c 0.41638,-0.0353 0.0827,0.0355 0,0 z m 1.3875,-0.0249 c 0.36072,-0.0355 0.0715,0.0358 0,0 z m 1.22545,-0.025 c 0.32973,-0.0346 0.069,0.0356 0,0 z m 1.11205,-0.0248 c 0.30513,-0.0364 0.0602,0.0368 0,0 z m 0.9875,-0.0247 c 0.24974,-0.0374 0.0483,0.0382 0,0 z m 0.9,-0.025 c 0.24974,-0.0374 0.0483,0.0382 0,0 z m 0.85,-0.025 c 0.24974,-0.0374 0.0483,0.0382 0,0 z m 0.77529,-0.025 c 0.21923,-0.0364 0.0453,0.0387 0,0 z m 0.71221,-0.0246 c 0.19362,-0.0388 0.0372,0.0401 0,0 z m 0.675,-0.025 c 0.19366,-0.0388 0.0372,0.0401 0,0 z m 0.62548,-0.0251 c 0.16495,-0.0369 0.0317,0.0414 0,0 z m 0.6,-0.025 c 0.16495,-0.0369 0.0318,0.0414 0,0 z m 0.53702,-0.0242 c 0.13768,-0.0406 0.025,0.0437 0,0 z m -46.27327,-0.0272 c 1.6125,-0.0169 1.56614,0.0205 0,0 z m 22.97478,3e-5 c 1.55099,-0.0282 0.3155,0.0283 0,0 z m 23.82349,0.002 c 0.13768,-0.0406 0.025,0.0437 0,0 z m -19.48627,-0.0271 c 0.94011,-0.0281 0.19292,0.0283 0,0 z m 19.96127,0.002 c 0.13768,-0.0406 0.025,0.0437 0,0 z m -17.04902,-0.027 c 0.66256,-0.0315 0.13689,0.0317 0,0 z m 17.49902,0.002 c 0.13768,-0.0406 0.025,0.0437 0,0 z m -15.24916,-0.0269 c 0.55161,-0.0313 0.11439,0.0318 0,0 z m 15.70072,0.001 c 0.10956,-0.0357 0.0108,0.0481 0,0 z m -13.87656,-0.0262 c 0.47195,-0.0354 0.0939,0.0355 0,0 z m 14.27656,10e-4 c 0.10956,-0.0357 0.0108,0.0481 0,0 z m -12.68906,-0.0261 c 0.41638,-0.0353 0.0827,0.0355 0,0 z m 13.08906,0.001 c 0.10956,-0.0357 0.0108,0.0481 0,0 z m -11.70156,-0.026 c 0.36072,-0.0355 0.0715,0.0358 0,0 z m 12.05156,0.001 c 0.10956,-0.0357 0.0108,0.0481 0,0 z m 19.63642,-2.5e-4 c 0.16495,-0.0369 0.0318,0.0414 0,0 z m 1.05,0 c 0.16495,-0.0369 0.0317,0.0414 0,0 z m -31.53798,-0.0258 c 0.36077,-0.0356 0.0715,0.0358 0,0 z m 11.20156,0.001 c 0.10956,-0.0357 0.0108,0.0481 0,0 z m -10.08906,-0.0258 c 0.30513,-0.0364 0.0602,0.0368 0,0 z m 10.41406,8.3e-4 c 0.10956,-0.0357 0.0108,0.0481 0,0 z m -9.41372,-0.0259 c 0.27438,-0.0357 0.0574,0.0371 0,0 z m 0.91216,-0.0247 c 0.24974,-0.0374 0.0483,0.0382 0,0 z m 0.85029,-0.025 c 0.21923,-0.0364 0.0453,0.0387 0,0 z m 0.775,-0.025 c 0.21923,-0.0364 0.0453,0.0387 0,0 z m 0.71221,-0.0246 c 0.19362,-0.0388 0.0372,0.0401 0,0 z m 0.675,-0.025 c 0.19366,-0.0388 0.0372,0.0401 0,0 z m 0.62548,-0.0251 c 0.16495,-0.0369 0.0317,0.0414 0,0 z m 0.575,-0.025 c 0.16495,-0.0369 0.0318,0.0414 0,0 z m 0.56202,-0.0242 c 0.13768,-0.0406 0.025,0.0437 0,0 z m 0.5,-0.025 c 0.13768,-0.0406 0.025,0.0437 0,0 z m 0.475,-0.025 c 0.13768,-0.0406 0.025,0.0437 0,0 z m 0.47656,-0.0255 c 0.10956,-0.0357 0.0108,0.0481 0,0 z m 0.425,-0.025 c 0.10956,-0.0357 0.0108,0.0481 0,0 z m 0.39844,-0.0245 c 0.13768,-0.0406 0.025,0.0437 0,0 z m 0.40156,-0.0255 c 0.10956,-0.0357 0.0108,0.0481 0,0 z m 0.35,-0.025 c 0.10956,-0.0357 0.0108,0.0481 0,0 z m 19.67344,5.2e-4 c 0.13768,-0.0406 0.025,0.0437 0,0 z m 1.025,0 c 0.13768,-0.0406 0.025,0.0437 0,0 z m -20.34844,-0.0255 c 0.10956,-0.0357 0.0108,0.0481 0,0 z m 12.60666,-0.19751 c 0.0361,-0.0666 0.0111,0.10773 0,0 z m 0.45,0 c 0.0361,-0.0666 0.0111,0.10773 0,0 z m 4.45476,-0.10274 c 0.16495,-0.0369 0.0317,0.0414 0,0 z m 1.725,0 c 0.16495,-0.0369 0.0317,0.0414 0,0 z m -2.16298,-0.0242 c 0.13768,-0.0406 0.025,0.0437 0,0 z m 2.62656,-5.2e-4 c 0.10956,-0.0357 0.0108,0.0481 0,0 z m -2.18858,-0.42525 c 0.16495,-0.0369 0.0317,0.0414 0,0 z m 1.7,0 c 0.16495,-0.0369 0.0318,0.0414 0,0 z m -2.08642,-0.0248 c 0.10956,-0.0357 0.0108,0.0481 0,0 z m 2.55,0 c 0.10956,-0.0357 0.0108,0.0481 0,0 z m -13.09136,-0.38292 c 0.0219,-0.11256 0.0218,0.1128 0,0 z m 6.02735,-0.4125 c 0.0239,-0.16332 0.0155,0.19417 0,0 z m 0.4495,0.0125 c 0.02,-0.15657 0.0201,0.15634 0,0 z m 12.6192,-0.50944 c 0.004,-0.11742 0.12756,0.0139 0,0 z m 16.32181,-0.0343 c 0.0316,-0.0552 0.0802,0.15357 0,0 z m -29.36786,-0.0812 c 0.0219,-0.11256 0.0218,0.1128 0,0 z m 29.64286,-0.26875 c 0.0318,-0.0553 0.0801,0.15374 0,0 z m 11.30319,-0.16569 c 0.004,-0.11775 0.1282,0.0141 0,0 z m -11.71488,-0.24681 c -0.16926,-0.20159 0.19676,0.19939 0,0 z m 12.53988,0.0468 c 0.004,-0.11742 0.12756,0.0139 0,0 z m -11.71488,-0.19681 c -0.18149,-0.19193 0.21805,0.18148 0,0 z m 11.36488,-0.0782 c 0.004,-0.11742 0.12756,0.0139 0,0 z m -40.89605,-0.46556 c 0.0219,-0.11256 0.0218,0.1128 0,0 z m 0.025,-0.425 c 0.0219,-0.11256 0.0218,0.1128 0,0 z m 0.023,-0.43959 c 0.0361,-0.0666 0.0111,0.10773 0,0 z m -0.425,-0.425 c 0.0361,-0.0666 0.0111,0.10773 0,0 z m 0.45,0 c 0.0361,-0.0666 0.0111,0.10773 0,0 z m 18.29484,-0.0542 c 0.0318,-0.0553 0.0801,0.15374 0,0 z m -18.26984,-0.32084 c 0.0361,-0.0666 0.0111,0.10773 0,0 z m -0.45,-0.025 c 0.0361,-0.0666 0.0111,0.10773 0,0 z m 22.00896,-0.49166 c -0.2723,-0.28091 0.30507,0.27142 0,0 z m 0.37419,-0.25 c -0.16926,-0.20158 0.19674,0.19936 0,0 z m -23.23315,-0.53334 c 0.0361,-0.0666 0.0111,0.10773 0,0 z m 0.45,-0.025 c 0.0361,-0.0666 0.0111,0.10773 0,0 z m -0.475,-0.325 c 0.0361,-0.0666 0.0111,0.10773 0,0 z m 0.45198,-0.0104 c 0.0219,-0.11256 0.0218,0.1128 0,0 z m -1.07698,-0.56459 c 0.0361,-0.0666 0.0111,0.10773 0,0 z m 0.60552,-0.18541 c 0.0184,-0.24479 0.0184,0.24503 0,0 z m 0.45,0 c 0.0184,-0.24479 0.0184,0.24503 0,0 z m -1.52669,-0.25 c 0.0201,-0.15634 0.02,0.15657 0,0 z m 0.45,0 c 0.0201,-0.15634 0.02,0.15657 0,0 z m 37.6942,0.0656 c 0.004,-0.11775 0.1282,0.0141 0,0 z m -37.04605,-0.56556 c 0.0219,-0.11256 0.0218,0.1128 0,0 z m 0.44802,0.0104 c 0.0361,-0.0666 0.0111,0.10773 0,0 z m -1.54617,-0.16041 c 0.0201,-0.15634 0.02,0.15657 0,0 z m 0.4505,-0.0125 c 0.0239,-0.16332 0.0155,0.19417 0,0 z m 24.2062,-0.4875 c 0.18648,-0.18178 -0.12804,0.17878 0,0 z m 46.93431,-1.16875 c 0.0318,-0.0553 0.0801,0.15374 0,0 z m -48.63669,-0.0375 c -0.16921,-0.2016 0.19655,0.19949 0,0 z m -0.53647,-0.5625 c -0.30705,-0.33435 0.33106,0.33288 0,0 z m 0.43728,-0.1875 c -0.2723,-0.28091 0.30507,0.27142 0,0 z m 12.06088,-1.0125 c 0.0316,-0.0552 0.0802,0.15357 0,0 z m -13.94766,-0.25 c -0.48673,-0.51208 0.50934,0.51033 0,0 z m 13.43757,-0.2875 c -0.53146,-0.55651 0.55384,0.55477 0,0 z m -13.23807,-0.1375 c -0.30705,-0.33435 0.33106,0.33288 0,0 z m 13.53833,-0.1875 c -0.75231,-0.75966 0.80107,0.77212 0,0 z m -29.96198,0.12181 c 0.004,-0.11775 0.1282,0.0141 0,0 z m 15.41093,-0.29681 c -0.26149,-0.28994 0.28658,0.28828 0,0 z m 0.23588,-0.3875 c 0.0291,-0.0531 0.10646,0.13193 0,0 z m -0.8487,-0.2 c -0.22696,-0.23627 0.26109,0.22685 0,0 z m 12.35189,-0.0937 c 0.23521,-0.22566 -0.17647,0.22225 0,0 z m -0.925,-0.0944 c 0.50232,-0.51574 0.52722,-0.48945 0,0 z m -11.17819,-0.18687 c 0.0316,-0.0552 0.0802,0.15357 0,0 z m 10.82819,-0.0907 c 0.004,-0.11775 0.1282,0.0141 0,0 z m -11.65319,-0.0843 c 0.0292,-0.0531 0.10617,0.13208 0,0 z m 22.225,-0.175 c 0.0317,-0.0552 0.0801,0.15377 0,0 z m -10.19681,-0.11569 c 0.004,-0.11775 0.1282,0.0141 0,0 z m 23.175,-0.55306 c 0.3289,-0.31402 -0.27011,0.31033 0,0 z m -35.45189,-0.006 c -0.21579,-0.2458 0.24144,0.24362 0,0 z m -3.8,-0.1 c -0.21574,-0.24561 0.2415,0.24386 0,0 z m 26.0987,-0.025 c 0.0317,-0.0552 0.0801,0.15356 0,0 z m 12.76569,-0.10625 c 0.18648,-0.18178 -0.12804,0.17878 0,0 z m 0.1625,-0.1625 c 0.23521,-0.22566 -0.17647,0.22225 0,0 z m -36.50189,-0.20625 c -0.21574,-0.24561 0.2415,0.24386 0,0 z m 36.88939,-0.15625 c 0.18638,-0.18181 -0.12772,0.17881 0,0 z m 0.6625,-0.0344 c 0.004,-0.11775 0.1282,0.0141 0,0 z m -37.32689,-0.20931 c -0.21579,-0.2458 0.24144,0.24362 0,0 z m 11.01439,-0.10625 c 0.37558,-0.35866 -0.31673,0.35475 0,0 z m -11.88885,-0.11875 c -0.3173,-0.32523 0.3488,0.31644 0,0 z m -32.28853,-0.1125 c -0.16926,-0.20159 0.19676,0.19939 0,0 z m 32.4762,-0.325 c -0.35202,-0.3788 0.37572,0.37699 0,0 z m 36.91049,0.0125 c 0.0291,-0.0531 0.10646,0.13193 0,0 z m -22.55,-0.175 c 0.0317,-0.0552 0.0801,0.15377 0,0 z m -1.06025,-0.4125 c -0.44194,-0.46765 0.46482,0.46589 0,0 z m -14.55144,-0.05 c -0.18143,-0.19174 0.2181,0.18169 0,0 z m -1.23831,-0.0375 c 0.0291,-0.053 0.10628,0.13179 0,0 z m 1.6513,-0.175 c -0.21579,-0.2458 0.24144,0.24362 0,0 z m 14.2014,-0.3 c -0.78094,-0.78787 0.83449,0.80542 0,0 z m 19.4223,0.15 c 0.0317,-0.0552 0.0801,0.15356 0,0 z m -19.97316,-0.075 c -0.30705,-0.33435 0.33106,0.33288 0,0 z m -1.67684,-0.625 c 0.0291,-0.053 0.10628,0.13179 0,0 z m -64.41694,-1.24375 c 0.0273,-0.1188 0.0147,0.15058 0,0 z m 87.54194,-1.05625 c 0.0292,-0.0531 0.10617,0.13208 0,0 z m 11.66569,-3.95625 c 0.18648,-0.18178 -0.12804,0.17878 0,0 z m -105.59219,-0.0421 c 0.10956,-0.0357 0.0108,0.0481 0,0 z m 0.375,-0.025 c 0.10956,-0.0357 0.0108,0.0481 0,0 z m 88.46481,-0.0392 c -0.18149,-0.19193 0.21805,0.18148 0,0 z m -88.08981,0.0142 c 0.10956,-0.0357 0.0108,0.0481 0,0 z m 0.37344,-0.0245 c 0.13768,-0.0406 0.025,0.0437 0,0 z m 0.42656,-0.0255 c 0.10956,-0.0357 0.0108,0.0481 0,0 z m 0.4,-0.025 c 0.10956,-0.0357 0.0108,0.0481 0,0 z m 0.42344,-0.0245 c 0.13768,-0.0406 0.025,0.0437 0,0 z m 0.425,-0.025 c 0.13768,-0.0406 0.025,0.0437 0,0 z m 0.45,-0.025 c 0.13768,-0.0406 0.025,0.0437 0,0 z m 0.45,-0.025 c 0.13768,-0.0406 0.025,0.0437 0,0 z m 0.475,-0.025 c 0.13768,-0.0406 0.025,0.0437 0,0 z m 0.45,-0.025 c 0.13768,-0.0406 0.025,0.0437 0,0 z m 0.5,-0.025 c 0.13768,-0.0406 0.025,0.0437 0,0 z m 0.475,-0.025 c 0.13768,-0.0406 0.025,0.0437 0,0 z m 0.5,-0.025 c 0.13768,-0.0406 0.025,0.0437 0,0 z m 0.51298,-0.0258 c 0.16495,-0.0369 0.0317,0.0414 0,0 z m 0.525,-0.025 c 0.16495,-0.0369 0.0317,0.0414 0,0 z m 0.525,-0.025 c 0.16495,-0.0369 0.0317,0.0414 0,0 z m 0.55,-0.025 c 0.16495,-0.0369 0.0318,0.0414 0,0 z m 0.55,-0.025 c 0.16495,-0.0369 0.0317,0.0414 0,0 z m 0.575,-0.025 c 0.16495,-0.0369 0.0318,0.0414 0,0 z m 0.575,-0.025 c 0.16495,-0.0369 0.0317,0.0414 0,0 z m 0.6,-0.025 c 0.16495,-0.0369 0.0317,0.0414 0,0 z m 0.625,-0.025 c 0.16495,-0.0369 0.0317,0.0414 0,0 z m 0.62452,-0.0249 c 0.19362,-0.0388 0.0372,0.0401 0,0 z m 0.675,-0.025 c 0.19366,-0.0388 0.0372,0.0401 0,0 z m 0.725,-0.025 c 0.19362,-0.0388 0.0372,0.0401 0,0 z m 0.7625,-0.0254 c 0.24974,-0.0374 0.0483,0.0382 0,0 z m 0.91284,-0.0253 c 0.27445,-0.0353 0.0573,0.0368 0,0 z m -18.94409,-0.18353 c -4.82304,-1.20304 4.83046,-0.44932 6.42142,-0.63687 5.41432,0.0657 11.07352,-0.13459 16.36608,0.0326 -4.08238,0.66984 -8.57458,0.35841 -12.80516,0.53843 -3.32695,0.0461 -6.65556,0.10867 -9.98234,0.0658 z m 100.45,-0.54853 c 0.18648,-0.18178 -0.12804,0.17878 0,0 z m -0.2875,-0.33444 c 0.004,-0.11775 0.1282,0.0141 0,0 z m -100.97265,-0.21721 c -1.29593,-2.25624 3.49858,-8.77853 7.4259,-9.21774 4.64538,-1.1861 10.75651,-1.18036 13.46558,3.51069 0.88098,1.6706 4.59328,6.72555 0.37489,5.68044 -7.0887,0.0257 -14.1777,0.0536 -21.26637,0.0266 z m 88.49765,-0.20779 c 0.004,-0.11775 0.1282,0.0141 0,0 z m 10.49681,-0.40931 c 0.0317,-0.0552 0.0801,0.15356 0,0 z m 9.41451,-0.3375 c -0.36211,-0.36979 0.39316,0.36086 0,0 z m 1.71179,-0.0625 c -0.21574,-0.24561 0.24152,0.24389 0,0 z m -0.1263,-0.125 c 0.0317,-0.0552 0.0801,0.15356 0,0 z m -18.16169,-1.6875 c -0.18149,-0.19193 0.21805,0.18148 0,0 z m -90.26012,-4.97819 c 0.004,-0.11742 0.12756,0.0139 0,0 z" /><path
         style="display:inline;fill:#333333;fill-opacity:1"
         d="m -173.16112,-203.36858 c -3.0976,-0.0139 -7.91106,-0.0751 -10.4625,-0.13295 -5.46533,-0.12391 -8.77237,-0.30037 -11.70118,-0.62435 -1.32047,-0.14606 -1.57525,-0.28702 -1.68993,-0.93499 -0.0601,-0.33969 -0.0603,-1.71726 -2.5e-4,-2.48712 0.0102,-0.13107 0.007,-0.13921 -0.15125,-0.3625 -0.89186,-1.25991 -1.45595,-2.85737 -1.62115,-4.59093 -0.0551,-0.57878 -0.0381,-1.56488 0.0365,-2.11592 0.23998,-1.77149 0.89285,-3.3834 1.89214,-4.67158 1.37888,-1.77751 3.49811,-2.84258 6.22261,-3.12734 0.48741,-0.0509 1.56619,-0.0578 2,-0.0127 1.38412,0.14391 2.53509,0.5378 3.58397,1.22654 0.12646,0.083 0.23414,0.15098 0.23929,0.15098 0.005,0 0.0779,-0.10686 0.16164,-0.23745 0.32587,-0.50811 0.47429,-0.85157 0.44212,-1.02309 -0.0208,-0.11103 -0.15802,-0.26437 -0.31104,-0.34765 l -0.12695,-0.0691 -0.0155,0.0699 c -0.072,0.32569 -0.14656,0.4947 -0.26072,0.59076 -0.22941,0.19303 -0.58881,0.0424 -0.68691,-0.28795 -0.0482,-0.16219 -0.0486,-0.2773 -0.002,-0.43462 0.0696,-0.23326 0.22887,-0.36499 0.51009,-0.4219 l 0.13438,-0.0272 0.0931,-0.3121 c 0.24251,-0.81296 0.80529,-2.08252 1.40996,-3.18068 0.49282,-0.89502 0.54837,-1.09455 0.36336,-1.30525 -0.11845,-0.13491 -0.31511,-0.25196 -0.9718,-0.57836 -0.61715,-0.30675 -0.8515,-0.45663 -0.98491,-0.6299 -0.19157,-0.2488 -0.19642,-0.52834 -0.0121,-0.69634 0.13513,-0.12315 0.40884,-0.20907 0.66601,-0.20907 0.0649,0 0.20529,-0.0354 0.33916,-0.0856 1.01601,-0.38051 3.26943,-0.64662 4.96596,-0.58644 1.15724,0.0411 1.82912,0.20696 1.96066,0.48415 0.18482,0.38949 -0.32885,0.66615 -1.5551,0.83757 -1.12785,0.15766 -2.16649,0.13005 -4.18278,-0.1112 -0.40685,-0.0487 -0.85844,-0.0958 -1.00354,-0.10465 -0.24616,-0.0151 -0.26902,-0.0124 -0.34153,0.0392 -0.0427,0.0304 -0.0777,0.0691 -0.0777,0.0859 0,0.0544 0.20806,0.23428 0.37828,0.32701 0.22962,0.12509 0.49733,0.21893 1.11155,0.38961 0.60139,0.16712 0.76221,0.23118 0.90558,0.36071 0.21511,0.19433 0.23284,0.46265 0.0576,0.87121 -0.0542,0.12648 -0.22915,0.49887 -0.38866,0.82753 -0.15951,0.32867 -0.28409,0.60351 -0.27685,0.61075 0.007,0.007 0.10584,0.017 0.21909,0.0216 0.94067,0.0385 2.32783,0.0977 4.26842,0.18204 4.26065,0.18516 6.48645,0.26056 7.2625,0.246 l 0.425,-0.008 -0.475,-0.0959 c -0.92633,-0.18703 -1.46627,-0.35059 -1.63865,-0.4964 -0.12786,-0.10815 -0.15933,-0.2742 -0.0774,-0.4085 0.12349,-0.20251 0.67727,-0.36725 1.56608,-0.4659 0.45605,-0.0506 1.70385,-0.0429 2.175,0.0135 0.95745,0.11454 1.97586,0.33754 2.5603,0.56062 0.36929,0.14096 0.49016,0.28957 0.39874,0.49023 -0.0725,0.15899 -0.35856,0.18901 -1.62502,0.17049 -0.82058,-0.012 -1.5585,0.0194 -1.64497,0.07 -0.0215,0.0126 -0.0258,0.0232 -0.01,0.0236 0.0161,4.2e-4 0.0639,0.0299 0.10625,0.0655 0.0647,0.0544 0.0769,0.0824 0.0769,0.17614 0,0.13713 -0.0703,0.21748 -0.2272,0.25973 -0.0819,0.0221 -0.49999,0.0643 -0.72905,0.0736 -0.0338,0.001 -0.0197,0.16268 0.0319,0.36481 0.0658,0.25786 0.3338,0.79667 0.51732,1.04024 0.25952,0.34443 0.60102,0.70836 1.34658,1.43504 0.74559,0.72669 0.88542,0.88729 0.88542,1.01689 0,0.0931 -0.12117,0.21879 -0.21091,0.21879 -0.0356,0 -0.21945,-0.0775 -0.40852,-0.17221 -1.09455,-0.54832 -1.74665,-0.52996 -2.3815,0.067 l -0.17828,0.16766 -0.14601,0.6125 c -0.44974,1.88668 -0.91342,3.41109 -1.22283,4.02025 -0.16684,0.32847 -0.30677,0.45449 -0.50483,0.45465 -0.24554,2e-4 -0.336,-0.17342 -0.3321,-0.6374 0.01,-1.17684 0.80472,-3.30855 1.65296,-4.43321 0.15776,-0.20917 0.15824,-0.21031 0.23021,-0.5507 0.12043,-0.56957 0.15793,-0.86138 0.14799,-1.15168 -0.008,-0.24073 -0.017,-0.28238 -0.0912,-0.43313 -0.18741,-0.38068 -0.6596,-0.63068 -1.64246,-0.86957 -1.86318,-0.45287 -6.05876,-0.84265 -8.5125,-0.79082 -0.78483,0.0166 -1.13104,0.0425 -1.59852,0.11965 -0.92435,0.15258 -1.30148,0.40674 -1.30148,0.87712 0,0.29511 0.29224,0.66651 1.37307,1.74501 0.44794,0.44697 0.9213,0.9141 1.05193,1.03806 2.2109,2.09811 2.47561,2.35193 3.8125,3.65556 0.495,0.48269 0.92172,0.90374 0.94827,0.93566 0.0265,0.0319 0.22905,0.24367 0.45001,0.47055 0.51699,0.53084 1.04148,1.11352 1.43396,1.59304 l 0.31147,0.38053 0.153,-0.13846 c 0.33385,-0.30211 0.68317,-0.52865 1.02474,-0.66455 0.19055,-0.0758 0.2235,-0.0811 0.51605,-0.082 0.30091,-0.001 0.31878,0.002 0.48185,0.0792 0.19822,0.0939 0.39675,0.28125 0.51161,0.48281 0.111,0.19479 0.22336,0.548 0.25829,0.81198 0.0486,0.36753 -0.006,1.27486 -0.0905,1.49423 -0.0124,0.0324 0.0422,0.0405 0.3757,0.0561 0.21462,0.0101 0.39642,0.0121 0.40399,0.005 0.008,-0.008 -9.3e-4,-0.11865 -0.0189,-0.24683 -0.0458,-0.32667 -0.0389,-1.13302 0.0131,-1.52056 0.22901,-1.70806 0.93733,-3.51027 1.87199,-4.76302 1.3358,-1.79039 3.58374,-3.05618 5.88038,-3.31117 0.60928,-0.0676 1.47665,-0.0252 2.1,0.10266 1.90574,0.39103 3.71845,1.90817 4.77269,3.99444 0.51302,1.01526 0.78662,1.94191 0.91958,3.11459 0.0403,0.35568 0.0402,1.49571 -1.8e-4,1.85 -0.20805,1.82479 -0.89022,3.43225 -1.97866,4.6625 -0.1034,0.11687 -0.21623,0.2448 -0.25072,0.28427 -0.0959,0.10981 -0.61327,0.56079 -0.83771,0.73027 -0.93681,0.70742 -1.99738,1.14783 -3.12565,1.29797 -0.31988,0.0426 -1.09683,0.0488 -1.42435,0.0114 -1.48274,-0.16927 -2.99067,-0.97249 -4.3132,-2.29748 -0.99932,-1.00119 -1.69012,-2.1196 -2.01215,-3.25767 l -0.069,-0.24375 h -0.48408 c -0.27135,0 -0.48409,0.01 -0.48409,0.0226 0,0.0565 0.1695,0.51922 0.29395,0.80243 0.61276,1.39451 1.775,2.88279 2.96855,3.80132 0.71013,0.54649 1.7294,1.0293 2.8125,1.33224 1.74863,0.48908 2.85906,0.52976 4.1364,0.15155 1.03804,-0.30736 2.18258,-0.93105 3.2136,-1.75118 0.4065,-0.32335 1.09033,-0.99715 1.38146,-1.3612 0.80951,-1.01227 1.30665,-2.15517 1.51056,-3.47273 0.0547,-0.35352 0.0622,-1.33995 0.0128,-1.6875 -0.0887,-0.6239 -0.25777,-1.2922 -0.60094,-2.375 -0.30428,-0.96011 -0.37889,-1.29261 -0.37889,-1.68856 0,-0.24512 -1.3e-4,-0.24563 -0.0762,-0.29978 -0.0419,-0.0298 -0.22365,-0.25189 -0.40391,-0.49347 -0.18025,-0.24157 -0.38919,-0.51325 -0.4643,-0.60371 -0.29047,-0.34985 -0.7062,-0.71532 -1.43027,-1.25738 -0.47399,-0.35485 -0.50149,-0.43633 -0.3163,-0.93718 0.06,-0.16221 0.13307,-0.36805 0.16243,-0.45742 0.0601,-0.18308 0.18191,-0.70495 0.16779,-0.71907 -0.005,-0.005 -0.0756,0.0243 -0.1568,0.0653 -0.21819,0.11014 -0.41767,0.16035 -0.63707,0.16035 -0.34104,0 -0.55738,-0.15399 -0.73565,-0.52363 -0.10205,-0.21158 -0.19334,-0.59402 -0.23928,-1.00241 -0.0432,-0.38381 -0.0432,-2.43294 -5e-5,-3.11804 0.12186,-1.93404 0.28134,-3.34778 0.45381,-4.0229 0.0389,-0.1524 0.0783,-0.29572 0.0875,-0.31848 0.0198,-0.0489 -0.0174,-0.059 -0.34928,-0.0954 -0.88055,-0.0966 -4.1571,-0.10285 -20.47479,-0.0388 -10.26291,0.0403 -42.70002,0.16301 -43.10364,0.1631 l -0.22843,5e-5 -0.01,0.17151 c -0.0133,0.23477 -0.0885,0.34736 -0.30119,0.45092 -0.30772,0.14981 -0.75548,0.18582 -2.83226,0.22782 -0.70125,0.0142 -1.3875,0.0307 -1.525,0.0368 -0.1375,0.006 -0.48063,0.0174 -0.7625,0.0251 -0.28188,0.008 -0.65313,0.0192 -0.825,0.0256 -0.17188,0.006 -0.48125,0.0174 -0.6875,0.0246 -0.20625,0.007 -0.49875,0.0185 -0.65,0.0252 -0.15125,0.007 -0.42688,0.0179 -0.6125,0.0249 -0.60771,0.0231 -1.92137,0.0787 -2.3625,0.1 -0.1375,0.007 -0.39063,0.0179 -0.5625,0.0251 -0.17188,0.007 -0.4025,0.0184 -0.5125,0.0249 -0.11,0.007 -0.34625,0.018 -0.525,0.0255 -0.17875,0.007 -0.415,0.0185 -0.525,0.0245 -0.11,0.006 -0.335,0.0172 -0.5,0.0247 -0.51688,0.0238 -0.81844,0.0388 -1.0125,0.0505 -0.10313,0.006 -0.31125,0.0174 -0.4625,0.0249 -0.15125,0.008 -0.365,0.0189 -0.475,0.0254 -0.11,0.006 -0.40813,0.0231 -0.6625,0.0369 -0.25438,0.0138 -0.55813,0.0304 -0.675,0.0369 -0.11688,0.006 -0.33063,0.0181 -0.475,0.0259 -0.14438,0.008 -0.32438,0.0191 -0.4,0.025 -0.0756,0.006 -0.24438,0.0171 -0.375,0.0247 -0.32251,0.0188 -0.60512,0.0364 -0.8,0.05 -0.0894,0.006 -0.2525,0.0171 -0.3625,0.0242 -0.77414,0.0497 -1.65955,0.11937 -1.7086,0.13447 -0.0357,0.011 0.17461,0.0403 0.5375,0.0749 2.9403,0.28024 4.79094,0.47947 5.9586,0.64148 0.14437,0.02 0.43125,0.0598 0.6375,0.0884 1.80022,0.24952 3.31764,0.55685 4.13963,0.8384 0.48257,0.16529 0.73053,0.29361 0.91414,0.47305 0.13273,0.12973 0.15791,0.16927 0.1841,0.28902 0.0278,0.12701 0.0256,0.14981 -0.0261,0.26987 -0.14386,0.33442 -0.55632,0.57416 -2.06179,1.19842 -0.82107,0.34046 -1.09987,0.46544 -1.43277,0.64229 -0.22839,0.12132 -0.52973,0.36219 -0.52973,0.42343 0,0.0827 0.27182,0.23705 0.6125,0.34771 1.16223,0.37749 3.59824,0.71017 9.825,1.34179 6.17057,0.62591 8.42103,0.93693 9.42154,1.30207 0.55769,0.20354 0.75794,0.47087 0.59377,0.79268 -0.36094,0.7075 -3.53431,1.36378 -11.81531,2.4435 -0.55798,0.0728 -1.47353,0.1902 -2.725,0.34954 -1.16876,0.14882 -3.10407,0.40103 -3.55,0.46264 -2.95017,0.40762 -4.60891,0.67802 -6.15,1.00256 -1.36757,0.288 -2.51962,0.63841 -3.02669,0.9206 -0.21296,0.11851 -0.42446,0.30306 -0.44609,0.38923 -0.0437,0.17423 0.25388,0.43473 0.77072,0.67461 1.46648,0.68064 4.4225,1.33679 10.97706,2.43659 1.91339,0.32105 2.36995,0.3957 5.2125,0.8522 1.02437,0.16451 2.13812,0.34383 2.475,0.39848 0.33687,0.0546 1.14125,0.18442 1.7875,0.28839 4.54283,0.73083 8.24261,1.38069 10.5125,1.84652 3.60557,0.73993 5.81191,1.38601 6.65,1.94732 0.29135,0.19513 0.47425,0.44831 0.47476,0.65717 3.3e-4,0.13877 -0.10655,0.34305 -0.23338,0.44607 -0.14531,0.11802 -0.45941,0.27009 -0.77092,0.37323 -0.88626,0.29345 -2.74119,0.57383 -4.90796,0.74186 -0.17875,0.0139 -0.38688,0.0304 -0.4625,0.0367 -0.0756,0.006 -0.23313,0.018 -0.35,0.026 -0.11688,0.008 -0.26313,0.0192 -0.325,0.0247 -0.0619,0.006 -0.225,0.0166 -0.3625,0.0244 -0.1375,0.008 -0.32313,0.0193 -0.4125,0.0255 -0.38559,0.0268 -1.16891,0.0698 -1.825,0.10015 -0.15813,0.007 -0.4,0.0186 -0.5375,0.025 -0.70195,0.0329 -1.81076,0.0774 -2.4875,0.0999 -0.21313,0.007 -0.545,0.0182 -0.7375,0.0247 -0.94869,0.0321 -1.90865,0.0595 -2.6375,0.0753 -0.32313,0.007 -0.73375,0.0182 -0.9125,0.0248 -0.17875,0.007 -0.73,0.0182 -1.225,0.0258 -0.495,0.008 -1.05188,0.0184 -1.2375,0.0242 -0.18563,0.006 -0.88313,0.0171 -1.55,0.0253 -0.66688,0.008 -1.37563,0.0194 -1.575,0.0249 -0.19938,0.006 -1.27375,0.0164 -2.3875,0.0241 -1.11375,0.008 -2.19938,0.0194 -2.4125,0.026 -0.21313,0.007 -2.7725,0.0248 -5.6875,0.0404 -5.04953,0.0271 -23.67398,0.017 -27.74865,-0.0151 -1.6739,-0.0131 -1.69946,-0.0141 -1.75372,-0.0651 -0.0303,-0.0284 -0.0601,-0.078 -0.0662,-0.11015 -0.0166,-0.0866 0.0448,-0.20959 0.1187,-0.23767 0.0424,-0.0161 1.69977,-0.0182 4.79487,-0.006 9.14307,0.036 29.32752,0.0149 30.23002,-0.0315 0.12375,-0.006 1.13625,-0.0179 2.25,-0.0257 1.11375,-0.008 2.23312,-0.0187 2.4875,-0.0243 0.25437,-0.006 0.9575,-0.0166 1.5625,-0.0245 0.605,-0.008 1.28562,-0.0193 1.5125,-0.0255 0.22687,-0.006 0.82875,-0.0172 1.3375,-0.0246 0.50875,-0.007 1.09937,-0.0188 1.3125,-0.0255 0.21312,-0.007 0.6125,-0.0178 0.8875,-0.0248 0.275,-0.007 0.68,-0.0182 0.9,-0.025 0.22,-0.007 0.63062,-0.0183 0.9125,-0.0255 0.28187,-0.007 0.65312,-0.0183 0.825,-0.0247 0.17187,-0.006 0.50375,-0.0176 0.7375,-0.025 0.40357,-0.0127 0.68322,-0.0231 1.3375,-0.0497 0.15812,-0.006 0.43937,-0.0178 0.625,-0.0253 0.18562,-0.007 0.43312,-0.0187 0.55,-0.0249 0.11687,-0.006 0.3475,-0.0176 0.5125,-0.0251 0.48293,-0.0222 1.10361,-0.0546 1.4375,-0.0751 0.10312,-0.006 0.2775,-0.017 0.3875,-0.0238 3.4654,-0.21312 5.77739,-0.51481 6.85,-0.89384 0.33705,-0.1191 0.6125,-0.29559 0.6125,-0.39243 0,-0.0209 -0.0628,-0.0973 -0.13958,-0.16991 -0.30344,-0.28695 -1.20586,-0.6567 -2.51042,-1.02861 -2.67348,-0.76218 -6.80304,-1.5568 -14.7625,-2.84067 -0.385,-0.0621 -0.90813,-0.14655 -1.1625,-0.18766 -0.25438,-0.0411 -1.19938,-0.19295 -2.1,-0.33742 -3.10406,-0.49795 -5.95974,-0.96598 -7.3375,-1.20259 -6.32016,-1.08537 -9.16598,-1.78159 -10.29768,-2.51926 -0.26044,-0.16977 -0.39269,-0.29951 -0.48067,-0.47155 -0.0881,-0.1722 -0.0934,-0.38309 -0.0138,-0.54742 0.31535,-0.65142 1.91027,-1.19562 5.30469,-1.81001 1.86984,-0.33843 3.99928,-0.64184 8.6875,-1.23779 5.90652,-0.75082 8.75854,-1.17239 10.925,-1.61487 1.43197,-0.29247 2.45873,-0.60639 2.73497,-0.83617 0.0582,-0.0484 0.0586,-0.0509 0.0125,-0.0857 -0.48274,-0.36457 -2.64041,-0.71375 -7.57247,-1.22546 -0.79061,-0.082 -2.38951,-0.24632 -2.675,-0.27488 -0.11148,-0.0112 -0.43791,-0.045 -1.6875,-0.17495 -0.50241,-0.0523 -2.83392,-0.31028 -2.93219,-0.32451 -0.0442,-0.006 -0.31656,-0.0403 -0.60531,-0.0754 -2.54539,-0.30928 -4.01585,-0.61144 -4.61625,-0.94859 -0.45844,-0.25744 -0.48695,-0.70016 -0.0669,-1.03834 0.31858,-0.25647 0.74987,-0.47106 1.88787,-0.93934 1.08245,-0.44541 1.53996,-0.66801 1.75988,-0.85625 0.11847,-0.10141 0.12265,-0.15456 0.019,-0.24177 -0.35321,-0.29721 -1.53153,-0.62931 -3.32115,-0.93605 -1.78621,-0.30615 -3.93527,-0.56377 -7.8375,-0.93953 -1.68841,-0.16258 -2.0835,-0.22863 -2.20072,-0.36794 -0.10548,-0.12536 -0.0665,-0.29071 0.0869,-0.36881 0.26065,-0.13268 1.55537,-0.25046 5.08882,-0.46291 1.56763,-0.0943 4.88512,-0.26165 6.925,-0.34942 0.48125,-0.0207 0.97062,-0.0435 1.0875,-0.0506 0.87156,-0.053 4.29568,-0.16205 6.3,-0.20058 1.35441,-0.026 1.96611,-0.0766 2.1161,-0.17485 0.046,-0.0301 0.0589,-0.061 0.0589,-0.14099 v -0.10239 l -1.23125,0.0154 c -0.67719,0.008 -5.45,0.0283 -10.60625,0.044 -6.99151,0.0213 -9.76589,0.0214 -10.9125,2.6e-4 -1.99634,-0.0368 -2.69377,-0.0919 -2.97242,-0.23514 -0.26324,-0.13527 -0.27649,-0.29083 -0.0793,-0.93117 0.427,-1.3867 1.26198,-3.28587 2.0389,-4.6375 1.2758,-2.21955 2.77935,-3.73121 4.63716,-4.66216 1.36732,-0.68517 2.96221,-1.10701 4.78818,-1.26645 0.78192,-0.0683 2.25462,-0.0359 3.1375,0.069 2.5386,0.30153 4.77064,1.25309 6.7125,2.86166 0.30608,0.25355 1.23442,1.17814 1.49152,1.4855 1.00787,1.20488 1.82509,2.62631 2.51272,4.37051 0.20294,0.51475 0.5425,1.51831 0.70995,2.09824 l 0.10647,0.36875 1.13967,-1.3e-4 c 1.35164,-1.6e-4 30.76664,-0.1103 40.88967,-0.15312 3.89125,-0.0165 10.20812,-0.0309 14.0375,-0.0321 7.20764,-0.002 7.47469,0.001 8.14022,0.0991 l 0.25272,0.0372 0.16061,-0.15675 c 0.18988,-0.18533 0.32244,-0.25956 1.24645,-0.69797 0.67097,-0.31836 0.98182,-0.47607 1.3375,-0.67862 0.22809,-0.12988 0.8625,-0.54909 0.8625,-0.56992 0,-0.009 -0.0741,-0.0595 -0.16466,-0.11245 -0.68362,-0.3998 -0.99239,-1.38069 -0.98299,-3.12279 0.003,-0.62368 0.022,-0.84222 0.0981,-1.15 0.12838,-0.51929 0.39303,-0.79162 0.91683,-0.94342 0.17673,-0.0512 0.24496,-0.0564 0.72023,-0.0543 0.41908,0.002 0.58356,0.013 0.81526,0.0552 0.49692,0.0906 0.91531,0.24219 1.22967,0.44555 0.95592,0.61838 1.16732,1.76349 0.65505,3.54833 -0.17698,0.61666 -0.29971,0.82289 -0.56248,0.94524 -0.15023,0.07 -0.48671,0.068 -0.87411,-0.005 -0.42896,-0.0809 -0.48106,-0.0763 -0.68214,0.061 -0.15099,0.10309 -0.20418,0.1598 -0.15,0.15995 0.0103,2e-5 0.17625,0.0161 0.36875,0.0357 0.1925,0.0196 0.47937,0.0425 0.6375,0.0509 1.04063,0.0555 1.50678,0.10326 1.98334,0.20321 1.30947,0.27464 2.42226,0.83122 3.07805,1.53953 0.55119,0.59534 0.86518,1.37668 1.01156,2.51719 0.047,0.36584 0.0771,0.49797 0.0771,0.33822 0,-0.12569 0.12017,-0.76099 0.18865,-0.99728 0.13041,-0.45004 0.36316,-0.86367 0.62709,-1.11444 0.16459,-0.15638 0.27468,-0.23105 0.75762,-0.51387 0.50005,-0.29285 0.69972,-0.51416 0.70109,-0.77708 3e-4,-0.058 -0.017,-0.23148 -0.0385,-0.38559 -0.0387,-0.27737 -0.0402,-0.28147 -0.15397,-0.40711 -0.38391,-0.42409 -0.71499,-1.16615 -0.83574,-1.87316 -0.0733,-0.42928 -0.0567,-0.9776 0.0396,-1.30375 0.17554,-0.59465 0.5236,-1.05121 1.07267,-1.40702 0.41451,-0.26862 0.85057,-0.40572 1.28846,-0.40511 0.33618,4.7e-4 0.53119,0.0465 0.80235,0.18949 0.37542,0.19795 0.68122,0.4973 1.00189,0.98079 0.30667,0.46238 0.44554,0.78363 0.61247,1.41685 0.13769,0.52228 0.21817,0.69503 0.39884,0.85606 0.19404,0.17294 0.42908,0.28816 1.26249,0.61887 0.85181,0.33802 1.37428,0.58686 1.76074,0.83859 0.36839,0.23997 0.45813,0.31307 0.76426,0.62259 0.62075,0.62761 0.975,1.43357 0.975,2.21822 0,0.70068 -0.31112,1.30206 -0.87975,1.70051 -0.10739,0.0753 -0.19525,0.14323 -0.19525,0.15107 0,0.008 0.0555,0.34721 0.12342,0.75417 0.47897,2.8716 0.88433,5.89874 0.97786,7.30242 0.0395,0.59303 0.0199,1.59528 -0.0365,1.8716 -0.1535,0.75088 -0.57162,1.29326 -1.23454,1.60142 -0.12384,0.0576 -0.16683,0.10191 -0.099,0.10204 0.0172,3e-5 0.23937,0.0219 0.49375,0.0486 0.64393,0.0676 1.39088,0.11955 2.21235,0.15375 0.88845,0.037 3.2555,0.0167 4.66265,-0.0399 1.26034,-0.0507 2.69487,-0.0401 3.0108,0.0223 0.41999,0.0829 0.68374,0.20569 0.89433,0.41628 0.271,0.271 0.40407,0.64848 0.4755,1.34887 0.0433,0.42446 0.0429,4.33225 -5e-4,5.225 -0.13197,2.71385 -0.31867,4.04396 -0.66937,4.76878 -0.24255,0.50129 -0.5999,0.69032 -0.95884,0.5072 -0.1678,-0.0856 -0.36597,-0.32999 -0.51447,-0.63444 -0.28162,-0.57737 -0.44254,-1.35721 -0.54252,-2.62904 -0.0335,-0.42643 -0.043,-2.84874 -0.0199,-5.0875 0.0114,-1.10603 0.009,-1.22677 -0.0317,-1.375 -0.10228,-0.3757 -0.29204,-0.49321 -0.93481,-0.57891 -0.35391,-0.0472 -1.87382,-0.0375 -4.08345,0.026 -10.03344,0.28828 -15.21925,0.32183 -17.7125,0.11458 -1.53675,-0.12774 -2.30953,-0.33266 -2.83235,-0.75106 -0.58932,-0.47161 -0.76566,-0.76348 -0.62551,-1.03529 0.15468,-0.29998 0.55601,-0.38273 1.84536,-0.38051 0.81175,0.001 1.16384,0.0131 3.1375,0.1048 3.94255,0.18306 5.97053,0.19874 8,0.0618 0.88458,-0.0597 1.9625,-0.17491 1.9625,-0.20981 0,-0.008 -0.12656,-0.0405 -0.28125,-0.0719 -0.42767,-0.0868 -1.43808,-0.33728 -1.97788,-0.49029 -1.35438,-0.38392 -3.13471,-1.04305 -3.99563,-1.47931 l -0.12727,-0.0645 0.0172,0.12967 c 0.009,0.0713 0.0576,0.26074 0.10695,0.42095 0.16309,0.52929 0.1678,0.64891 0.0301,0.76477 -0.36533,0.30741 -1.06617,-0.53122 -1.48715,-1.77956 l -0.0948,-0.28106 -0.2389,-0.14202 c -0.85331,-0.50725 -1.66154,-1.12254 -2.29331,-1.74585 -0.86625,-0.85466 -1.50796,-1.75327 -2.07094,-2.9 -0.31532,-0.64229 -0.55225,-1.25176 -0.93486,-2.40478 -0.42788,-1.28947 -0.58074,-1.64086 -0.87883,-2.02022 -0.33908,-0.43154 -0.89892,-0.73806 -2.09846,-1.14894 -0.76904,-0.26342 -2.8173,-0.83672 -2.87095,-0.80357 -0.0117,0.007 -0.0453,0.0951 -0.0748,0.19531 -0.18955,0.64388 -0.352,1.99165 -0.4845,4.0197 -0.0438,0.67024 -0.0434,2.85262 6.3e-4,3.1875 0.092,0.7002 0.2544,1.05841 0.49808,1.09845 0.20612,0.0339 0.54335,-0.10588 0.77376,-0.32067 l 0.14532,-0.13546 -0.004,-0.62116 c -0.004,-0.53933 -0.0411,-1.23348 -0.10191,-1.88366 -0.01,-0.10313 -0.0175,-0.44625 -0.0174,-0.7625 1.4e-4,-0.45566 0.01,-0.6243 0.0463,-0.8125 0.0859,-0.44257 0.17769,-0.6 0.34991,-0.6 0.0979,0 0.17774,0.0544 0.2309,0.15718 0.0332,0.0642 0.045,0.20906 0.0622,0.76723 0.0259,0.8371 0.0582,1.43486 0.11126,2.06309 0.0699,0.82628 0.0195,1.30837 -0.17569,1.68251 -0.077,0.14767 -0.0921,0.20857 -0.12712,0.51461 -0.0482,0.421 -0.16264,0.88515 -0.33313,1.35112 -0.10325,0.28218 -0.12162,0.35526 -0.0968,0.38522 0.0168,0.0203 0.18808,0.1553 0.38058,0.29993 0.86357,0.64882 1.25146,1.03396 1.77975,1.76714 0.0989,0.13721 0.21409,0.28884 0.25605,0.33697 0.0724,0.083 0.0778,0.085 0.10545,0.0389 0.0604,-0.10071 0.23892,-0.27404 0.38285,-0.37178 0.39556,-0.26862 1.04863,-0.4416 2.2259,-0.58957 1.76872,-0.22231 3.43324,-0.23306 4.2375,-0.0274 0.4479,0.11455 0.75933,0.29454 0.90378,0.52231 0.0584,0.0921 0.0712,0.13997 0.0712,0.26615 0,0.13043 -0.0111,0.16924 -0.0732,0.25488 -0.0906,0.1251 -0.2764,0.2187 -0.51421,0.25906 -0.22099,0.0375 -0.774,0.0166 -1.35011,-0.051 -1.90783,-0.22383 -2.09573,-0.23716 -3.08272,-0.21872 -1.2099,0.0226 -1.67907,0.10006 -2.27156,0.37499 -0.26678,0.1238 -0.27999,0.13355 -0.29502,0.21785 -0.0387,0.21728 0.10459,0.82937 0.44476,1.89925 0.5847,1.83897 0.70729,2.89945 0.4895,4.23443 -0.26955,1.65219 -1.15462,3.23869 -2.46754,4.4231 -1.53166,1.38174 -3.32488,2.29568 -4.91268,2.50382 -0.34311,0.045 -1.12559,0.0515 -1.48698,0.0124 -0.90855,-0.0984 -2.07618,-0.39346 -2.98026,-0.75325 -0.6758,-0.26894 -1.50827,-0.75009 -2.03827,-1.17809 -1.35893,-1.0974 -2.67092,-2.95827 -3.1629,-4.48613 l -0.10667,-0.33125 -0.50233,4e-4 -0.50233,4e-4 -0.0625,0.19273 c -0.0839,0.25874 -0.29122,0.68366 -0.44401,0.91009 -0.16643,0.24664 -0.42367,0.48383 -0.62938,0.58033 -0.13902,0.0652 -0.20062,0.0785 -0.40293,0.0867 -0.37671,0.0154 -0.69658,-0.0906 -1.10258,-0.36515 -0.42543,-0.28774 -0.79704,-0.66367 -1.38934,-1.40552 l -0.36926,-0.4625 -0.64742,-0.10675 c -0.35609,-0.0587 -0.65156,-0.10261 -0.65661,-0.0976 -0.005,0.005 -0.0205,0.22746 -0.0343,0.49424 -0.0486,0.93945 -0.14355,1.38114 -0.36637,1.70393 -0.19078,0.27636 -0.48893,0.25672 -0.62908,-0.0414 -0.11808,-0.2512 -0.21228,-0.94947 -0.21448,-1.58991 -0.002,-0.47673 0.0282,-0.64653 0.14369,-0.81676 0.11576,-0.17068 0.2258,-0.21885 0.52398,-0.22936 l 0.24445,-0.009 0.0493,-0.0966 c 0.10879,-0.21324 0.2955,-0.32226 0.55334,-0.32311 0.35944,-0.001 0.77125,0.2144 1.14865,0.60132 l 0.11517,0.11807 0.39316,0.0607 0.39317,0.0607 -0.0157,-0.0644 c -0.009,-0.0354 -0.0222,-0.15063 -0.0302,-0.25601 -0.0222,-0.29476 0.0861,-0.60611 0.33034,-0.94954 l 0.0826,-0.11613 -0.12709,-0.15887 c -0.44365,-0.55457 -0.6785,-0.8228 -1.32114,-1.50886 -0.52873,-0.56447 -2.05295,-2.08311 -2.97293,-2.96208 -0.33688,-0.32185 -0.74759,-0.71518 -0.9127,-0.87406 -0.16512,-0.15887 -0.50251,-0.48011 -0.74977,-0.71386 -2.39686,-2.26592 -3.09609,-3.00377 -3.34303,-3.52767 -0.1973,-0.41858 -0.0748,-0.95027 0.28491,-1.23675 0.36798,-0.29306 1.01616,-0.47064 1.99559,-0.54672 2.05031,-0.15927 6.47261,0.15062 8.94902,0.6271 1.74322,0.3354 2.45931,0.74322 2.63834,1.50253 0.0628,0.26628 0.0431,0.72185 -0.0537,1.24254 l -0.016,0.086 0.0849,-0.0567 c 0.45276,-0.30217 1.02404,-0.36443 1.73493,-0.18908 0.06,0.0148 -0.0378,-0.0962 -0.48766,-0.5539 -0.71791,-0.73035 -0.96898,-1.04925 -1.21826,-1.5474 -0.16001,-0.31976 -0.24985,-0.5898 -0.28703,-0.86277 l -0.0295,-0.21686 -0.93876,-0.0169 c -1.46404,-0.0263 -3.52424,-0.10358 -8.07626,-0.30304 -1.39563,-0.0611 -2.74229,-0.11884 -2.99259,-0.12819 l -0.45508,-0.017 -0.0894,0.0785 c -0.16095,0.14132 -0.27363,0.18379 -0.45953,0.1732 -0.0913,-0.005 -0.184,-0.0179 -0.20608,-0.0282 -0.0328,-0.0153 -0.0734,0.0536 -0.22093,0.37509 -0.21606,0.47073 -0.43758,1.00331 -0.55993,1.34621 -0.10111,0.28334 -0.22499,0.68932 -0.21238,0.69602 0.005,0.002 0.0821,0.0397 0.1722,0.0828 0.21879,0.10463 0.42853,0.29957 0.51526,0.47891 0.0587,0.12141 0.0684,0.17157 0.0659,0.34226 -0.005,0.30922 -0.11162,0.56075 -0.50194,1.17879 l -0.17561,0.27807 0.2253,0.19628 c 0.97501,0.84943 1.97075,2.32278 2.58295,3.82186 0.76059,1.86247 0.92899,3.76121 0.48837,5.50653 -0.26971,1.06832 -0.81301,2.22296 -1.48457,3.15505 -0.55831,0.77491 -1.36356,1.55635 -2.122,2.05925 -1.03657,0.68732 -2.31422,1.1256 -3.72498,1.27779 -1.06884,0.11531 -2.08796,0.0948 -3.10495,-0.0624 -1.16171,-0.17961 -2.29495,-0.57064 -3.0558,-1.05444 -0.0944,-0.0601 -0.29509,-0.1691 -0.44589,-0.24233 -0.49165,-0.23875 -0.88004,-0.5066 -1.27049,-0.8762 -0.25018,-0.23681 -0.22991,-0.26182 -0.24503,0.30246 -0.0276,1.02911 0.002,1.59548 0.0928,1.78727 0.0963,0.20301 0.50215,0.29892 1.78439,0.42166 0.0756,0.007 0.3625,0.0353 0.6375,0.0623 3.73438,0.36698 9.31002,0.54686 19.475,0.62829 4.07004,0.0326 24.64526,0.0161 32.0875,-0.0258 2.48187,-0.014 6.64437,-0.0371 9.25,-0.0514 2.60562,-0.0143 6.56562,-0.0367 8.8,-0.0497 2.23437,-0.013 4.73566,-0.0269 5.55841,-0.031 l 1.49592,-0.007 0.0491,0.0605 c 0.07,0.0863 0.0553,0.24388 -0.0284,0.3054 -0.0597,0.0439 -0.24061,0.0471 -4.0125,0.071 -20.16789,0.12791 -32.53405,0.17692 -42.7375,0.16939 -4.31063,-0.003 -8.355,-0.008 -8.9875,-0.011 z m -15.7375,-1.78436 c 1.54156,-0.13517 2.81187,-0.54168 3.86425,-1.23661 0.42903,-0.2833 0.75988,-0.55644 1.1624,-0.95962 0.7056,-0.70677 1.24606,-1.47225 1.68727,-2.38975 0.53306,-1.10849 0.79438,-2.13019 0.82807,-3.2375 0.058,-1.90497 -0.61019,-3.9615 -1.88843,-5.8125 -0.3955,-0.57273 -1.01036,-1.27088 -1.37037,-1.55601 l -0.0982,-0.0778 -0.1386,0.2044 c -0.0762,0.11242 -0.15736,0.23356 -0.18028,0.2692 l -0.0417,0.0648 0.20654,0.13825 c 0.55637,0.37244 1.02501,0.9075 1.41364,1.61401 0.94874,1.7248 1.42841,4.4072 1.14099,6.38063 -0.10499,0.72081 -0.30653,1.37247 -0.62242,2.0125 -0.35946,0.7283 -0.77201,1.30223 -1.34832,1.87577 -1.72552,1.7172 -3.97737,2.46002 -7.28002,2.40149 -0.35898,-0.006 -0.74991,-0.0195 -0.86875,-0.0291 -0.11885,-0.01 -0.21608,-0.0113 -0.21608,-0.004 0,0.0166 0.55075,0.14811 0.85,0.20299 0.38852,0.0712 1.00572,0.14091 1.38644,0.15648 0.20683,0.008 0.38059,0.0193 0.38613,0.0241 0.017,0.0147 0.82253,-0.0154 1.12743,-0.0421 z m 63.01538,-0.26838 c 0.45308,-0.41382 0.72281,-2.15031 0.83569,-5.3801 0.0349,-0.99958 0.034,-3.89545 -0.001,-4.425 -0.0892,-1.33295 -0.32954,-1.58736 -1.58552,-1.67816 -0.40814,-0.0295 -0.91378,-0.0206 -2.61412,0.0462 -1.3266,0.0521 -4.18573,0.0587 -4.9625,0.0116 -1.09494,-0.0665 -1.93351,-0.14573 -2.77658,-0.26238 l -0.39842,-0.0551 -0.45149,0.0916 c -1.24429,0.25246 -2.81557,0.37916 -5.11101,0.41212 -1.46644,0.0211 -2.98594,-0.0204 -6.07424,-0.16588 -1.86502,-0.0878 -2.89393,-0.11214 -3.36519,-0.0795 -0.46973,0.0325 -0.75549,0.0873 -0.7793,0.14932 -0.0108,0.0281 0.0565,0.10826 0.22771,0.27131 0.40556,0.38627 0.65164,0.52063 1.21337,0.6625 1.80693,0.45635 6.52102,0.48536 19.51515,0.12012 2.81342,-0.0791 3.78956,-0.0705 4.3125,0.038 0.49614,0.1029 0.77593,0.33099 0.90107,0.73458 0.0871,0.28073 0.0964,0.71924 0.0571,2.66629 -0.0723,3.57331 0.0375,5.15611 0.43013,6.2 0.14624,0.38883 0.37593,0.7125 0.50562,0.7125 0.0247,0 0.0794,-0.0315 0.12151,-0.0699 z m -64.72788,-0.47972 c 1.58576,-0.0574 2.69852,-0.2767 3.79893,-0.74887 1.64829,-0.70726 3.02788,-2.08367 3.67248,-3.66401 0.30776,-0.75455 0.45469,-1.49529 0.48346,-2.4375 0.0633,-2.07394 -0.62765,-4.58876 -1.60366,-5.83652 -0.26494,-0.33871 -0.74098,-0.77288 -0.98677,-0.89998 l -0.068,-0.0351 -0.48574,0.74855 c -1.99144,3.06892 -2.60225,3.95387 -3.16847,4.59046 -0.19192,0.21578 -0.20853,0.24306 -0.21822,0.35832 -0.0247,0.2935 -0.22323,0.44511 -0.49998,0.38178 -0.0784,-0.0179 -0.12211,-0.016 -0.16532,0.007 -0.10559,0.0571 -0.2801,0.0676 -0.38603,0.0233 -0.21985,-0.0919 -0.29765,-0.24974 -0.28029,-0.5688 0.0126,-0.23055 0.0675,-0.38255 0.18828,-0.52062 0.0415,-0.0474 0.0832,-0.12561 0.0928,-0.17373 0.14519,-0.73272 0.64058,-1.51949 2.40055,-3.8125 0.6187,-0.80609 1.11349,-1.4981 1.11349,-1.55732 0,-0.0388 -0.51436,-0.13305 -0.99614,-0.18255 -0.3589,-0.0369 -1.25169,-0.0154 -1.59136,0.0382 -0.35503,0.0561 -0.92821,0.20205 -1.25,0.31836 -1.70226,0.61529 -3.43223,2.17028 -4.51386,4.05729 -0.70576,1.23126 -1.14188,2.83966 -1.29843,4.78851 -0.0572,0.71266 -0.0541,0.66476 -0.14,2.11287 l -0.0163,0.27538 0.14191,0.27428 c 0.27929,0.53978 0.60843,0.98101 1.05467,1.41383 0.31606,0.30655 0.595,0.52287 0.77204,0.5987 0.54026,0.23141 1.45582,0.4032 2.35,0.44095 0.20625,0.009 0.37693,0.0171 0.37929,0.0187 0.0241,0.0159 0.65839,0.0111 1.22071,-0.009 z m 29.3875,-0.44109 c 1.09222,-0.16032 2.13617,-0.62518 3.03779,-1.35268 0.31068,-0.25069 0.84111,-0.7914 1.08558,-1.10661 0.88003,-1.13473 1.41467,-2.44327 1.61387,-3.95 0.0563,-0.42594 0.0763,-1.2781 0.0401,-1.7125 -0.0956,-1.14836 -0.3642,-2.12651 -0.85459,-3.11195 -0.43094,-0.86599 -0.95448,-1.5867 -1.62625,-2.23874 -1.01201,-0.98228 -2.04437,-1.50365 -3.37153,-1.70271 -0.34825,-0.0522 -1.1652,-0.0588 -1.5375,-0.0123 -0.91242,0.11386 -1.77608,0.37549 -2.65,0.80276 -1.497,0.73191 -2.61944,1.76817 -3.4226,3.15982 -0.60214,1.04333 -1.06285,2.40143 -1.2562,3.70314 -0.055,0.37035 -0.058,1.24257 -0.005,1.55 l 0.0343,0.2 0.15616,-8.4e-4 c 0.0859,-4.5e-4 0.30952,-0.003 0.49694,-0.006 l 0.34077,-0.005 -0.0162,-0.0937 c -0.13523,-0.78035 -0.11145,-1.83622 0.0624,-2.76875 0.16926,-0.90817 0.48858,-1.85415 0.92406,-2.7375 0.72049,-1.4615 1.21956,-1.93381 1.90351,-1.80148 0.87664,0.16961 2.43268,1.60467 4.10839,3.78898 0.17932,0.23375 0.40623,0.5375 0.50424,0.675 0.16107,0.22597 0.19006,0.25418 0.30159,0.2935 0.17533,0.0618 0.47133,0.2631 0.61968,0.42139 0.4673,0.49859 0.43277,1.07701 -0.0871,1.4586 -0.61801,0.45366 -1.86969,0.73352 -4.25205,0.95069 -0.87407,0.0797 -3.0422,0.21332 -3.46088,0.21332 -0.0863,0 -0.0836,0.0411 0.0237,0.36183 0.29743,0.88898 0.8117,1.75145 1.49841,2.51294 0.25135,0.27872 0.75079,0.75117 1.04952,0.9928 1.16819,0.94492 2.37514,1.46636 3.62672,1.56686 0.2199,0.0177 0.84146,-0.0103 1.1125,-0.0501 z m -35.73912,-2.18998 c -0.004,-0.0238 -0.058,-0.17562 -0.11926,-0.3375 -0.2837,-0.74903 -0.47367,-1.55593 -0.58,-2.4635 -0.0987,-0.84221 -0.10328,-1.98634 -0.0114,-2.83081 0.23784,-2.18598 1.03279,-3.89486 2.37477,-5.10496 1.46167,-1.31803 3.53166,-2.19888 5.7875,-2.46276 0.16938,-0.0198 0.55824,-0.0315 1.0125,-0.0303 0.71847,0.002 0.96946,0.0223 1.525,0.12465 0.1396,0.0257 -0.23206,-0.0959 -0.5,-0.16357 -0.32409,-0.0819 -0.75516,-0.15798 -1.1625,-0.20517 -0.41217,-0.0478 -1.56161,-0.0397 -2.025,0.0141 -2.7885,0.32418 -4.8423,1.44521 -6.14293,3.35302 -0.81238,1.19162 -1.32131,2.56577 -1.53533,4.14552 -0.054,0.39845 -0.0668,1.58326 -0.0218,2.00792 0.15005,1.41423 0.57506,2.74685 1.22089,3.82813 0.11459,0.19184 0.15729,0.24545 0.16928,0.2125 0.009,-0.0242 0.0125,-0.0635 0.008,-0.0873 z m 0.0739,-1.29493 c 0.007,-0.0615 0.0193,-0.22438 0.0273,-0.36188 0.11468,-1.9695 0.3705,-3.38175 0.831,-4.5875 1.00531,-2.63229 3.34758,-4.93603 5.71921,-5.62513 0.69346,-0.2015 1.15984,-0.26266 1.98775,-0.26069 0.69557,0.002 1.08086,0.0407 1.59572,0.16184 0.11453,0.0269 0.21814,0.049 0.23025,0.049 0.0272,0 0.12403,-0.30704 0.12403,-0.39343 0,-0.21268 -0.46615,-0.37487 -1.35432,-0.47121 -0.50499,-0.0548 -1.43727,-0.0374 -1.98495,0.037 -1.57847,0.21447 -3.11911,0.77873 -4.35783,1.59605 -0.83454,0.55065 -1.6096,1.33225 -2.08988,2.10754 -1.1428,1.84475 -1.47816,4.88701 -0.83289,7.55576 0.0425,0.1756 0.0805,0.31594 0.0846,0.31189 0.004,-0.004 0.0131,-0.0577 0.0201,-0.11926 z m 24.08316,-0.57468 c 0.27996,-0.12259 0.5896,-0.55153 0.8085,-1.12 0.0405,-0.10508 0.0736,-0.1926 0.0736,-0.19448 0,-0.002 -0.13219,-0.0109 -0.29375,-0.0201 -0.16156,-0.009 -0.50188,-0.0342 -0.75625,-0.0557 -0.43663,-0.0368 -0.47265,-0.0365 -0.64392,0.006 -0.22379,0.0553 -0.42071,0.0294 -0.67273,-0.0885 -0.12779,-0.0598 -0.24669,-0.089 -0.51769,-0.12717 -0.19349,-0.0273 -0.37224,-0.0496 -0.39722,-0.0496 -0.0329,0 0.0228,0.0846 0.20255,0.30752 0.33903,0.42045 0.59447,0.68617 0.88179,0.91728 0.55157,0.44366 0.9663,0.57765 1.31515,0.4249 z m -4.99729,-0.31845 c 0.0995,-0.31923 0.12867,-0.55785 0.1679,-1.37397 l 0.0159,-0.33022 -0.0614,-0.0154 c -0.0337,-0.008 -0.10682,-0.003 -0.16239,0.0118 -0.13399,0.0361 -0.15774,0.10477 -0.17337,0.50153 -0.016,0.40664 0.0838,1.375 0.14177,1.375 0.0104,0 0.0426,-0.0759 0.0716,-0.16875 z m 6.05928,-1.68631 c 0.0624,-0.30667 0.0877,-0.97821 0.0465,-1.2339 -0.0374,-0.23169 -0.12457,-0.49463 -0.20751,-0.62575 -0.17376,-0.27473 -0.44413,-0.41276 -0.71454,-0.3648 -0.35566,0.0631 -0.75858,0.29373 -1.17837,0.67457 l -0.16154,0.14654 0.16154,0.24794 c 0.20693,0.3176 0.45465,0.8099 0.49368,0.98112 0.0167,0.0732 0.0304,0.17663 0.0304,0.22977 0,0.0531 0.008,0.10173 0.0187,0.10799 0.0179,0.0109 0.9948,0.0857 1.28125,0.0981 0.0756,0.003 0.14765,-0.002 0.16005,-0.0116 0.0124,-0.01 0.0438,-0.12215 0.0699,-0.25 z m 4.64508,0.19184 c 2.09731,-0.11998 3.81267,-0.3105 4.725,-0.52481 0.31151,-0.0732 0.85,-0.23903 0.85,-0.26179 0,-0.009 -0.0872,-0.0364 -0.19375,-0.0614 -0.46252,-0.10823 -1.00675,-0.3542 -1.2322,-0.55691 -0.16607,-0.1493 -0.22411,-0.26592 -0.22382,-0.44965 2.8e-4,-0.17311 0.0925,-0.356 0.24251,-0.48077 0.18045,-0.15013 0.61258,-0.32647 0.80001,-0.32647 0.0315,0 0.0572,-0.01 0.0572,-0.0217 0,-0.0502 -0.94984,-1.26557 -1.36042,-1.74078 -0.76023,-0.8799 -1.44968,-1.55514 -2.04083,-1.99875 -0.41908,-0.3145 -0.77928,-0.48875 -1.01026,-0.48875 -0.35472,0 -0.74889,0.46944 -1.26997,1.5125 -0.50634,1.01354 -0.84402,2.08361 -1.00982,3.2 -0.0632,0.4255 -0.0645,1.58359 -0.002,1.9695 0.0239,0.14823 0.0435,0.27653 0.0435,0.2851 0,0.0195 0.78474,-0.007 1.625,-0.0553 z m -6.61228,-0.23729 c -0.0448,-0.17143 -0.24698,-0.57964 -0.40514,-0.81787 l -0.12008,-0.18088 -0.0429,0.0559 c -0.0236,0.0307 -0.0782,0.12709 -0.1213,0.21413 -0.14518,0.29311 -0.12315,0.57264 0.059,0.74923 0.0753,0.0729 0.10333,0.0819 0.35594,0.11294 0.15083,0.0186 0.28234,0.027 0.29224,0.0187 0.01,-0.008 0.002,-0.0767 -0.0178,-0.15209 z m -2.78772,-0.25924 c 0,-0.0199 -0.22641,-0.11532 -0.32734,-0.13799 -0.10487,-0.0236 -0.22266,-3.7e-4 -0.22266,0.0439 0,0.0123 0.0984,0.0393 0.21875,0.0601 0.23067,0.0398 0.33125,0.0502 0.33125,0.034 z m 15.35,-0.69468 c 0,-0.0639 -0.20675,-0.44881 -0.39612,-0.73748 -0.1964,-0.2994 -0.20148,-0.30467 -0.30903,-0.3208 -0.28676,-0.043 -0.78492,0.14929 -0.88421,0.34131 -0.0338,0.0654 -0.0316,0.0743 0.0399,0.15571 0.0848,0.0965 0.41752,0.27641 0.69415,0.37522 0.18626,0.0665 0.60808,0.17869 0.7428,0.1975 0.0413,0.006 0.0834,0.0122 0.0937,0.0142 0.0103,0.002 0.0188,-0.009 0.0188,-0.0257 z m -28.55,-0.64727 c 0,-0.0283 -0.10562,-0.12601 -0.1203,-0.11134 -0.0261,0.0261 0.0514,0.15914 0.0851,0.14618 0.0193,-0.007 0.0352,-0.0231 0.0352,-0.0348 z m 0.55438,-0.5858 c 0.25906,-0.31092 0.37632,-0.46543 0.72766,-0.95878 0.46168,-0.64828 2.69612,-4.0523 2.70195,-4.11622 0.002,-0.0266 -0.46962,-0.2134 -0.53365,-0.21121 -0.0208,7.1e-4 -0.13244,0.14686 -0.24807,0.32477 -0.11562,0.17791 -0.43062,0.61523 -0.7,0.97184 -1.64818,2.18187 -1.75382,2.32664 -2.08745,2.86058 -0.25785,0.41266 -0.51482,0.96127 -0.51482,1.0991 0,0.0178 0.0366,0.0458 0.0813,0.0622 0.0447,0.0164 0.1375,0.0739 0.20625,0.12787 0.0687,0.0539 0.13256,0.0962 0.14179,0.094 0.009,-0.002 0.11053,-0.11659 0.22509,-0.25409 z m 17.17421,-2.22891 c 0.16692,-0.36814 0.43898,-1.1803 0.65608,-1.95859 0.19061,-0.68332 0.34278,-1.28089 0.32954,-1.29412 -0.0206,-0.0206 -0.33773,0.65495 -0.49619,1.05717 -0.17658,0.44821 -0.34381,0.96616 -0.43972,1.36195 -0.10745,0.44342 -0.18494,1 -0.13923,1 0.008,0 0.048,-0.0749 0.0895,-0.16641 z m 34.94396,-0.84785 c 0.50704,-0.16943 0.80191,-0.33311 1.07268,-0.59543 0.40623,-0.39357 0.53959,-0.85 0.53771,-1.84031 -0.002,-0.78995 -0.0767,-1.67554 -0.2712,-3.19439 -0.20903,-1.63218 -0.80938,-5.55561 -0.85011,-5.55561 -0.004,0 -0.1122,0.0343 -0.24063,0.0763 -0.26701,0.0873 -0.84687,0.20795 -1.196,0.24891 -0.13063,0.0153 -0.49655,0.0343 -0.81316,0.0422 -2.01639,0.0504 -3.745,-0.45346 -4.4676,-1.30213 -0.43912,-0.51575 -0.6316,-1.07202 -0.70832,-2.04711 l -0.0153,-0.19428 -0.11656,0.0843 c -0.0641,0.0464 -0.29647,0.19004 -0.51634,0.31928 -0.49017,0.28812 -0.69547,0.47703 -0.85692,0.78849 -0.36688,0.70777 -0.49951,1.76382 -0.47367,3.77149 0.0377,2.92883 0.40127,4.7448 1.07109,5.34994 0.23144,0.2091 0.54583,0.27864 0.76097,0.16833 0.47173,-0.24187 0.76983,-1.34512 0.75626,-2.79883 -0.006,-0.63732 0.0171,-0.84557 0.16792,-1.51711 0.1894,-0.84331 0.38968,-1.23983 0.62623,-1.23983 0.24572,0 0.3645,0.19639 0.45082,0.74539 0.0588,0.37369 0.0584,1.29823 -7.1e-4,1.74211 -0.13861,1.04125 -0.49941,1.97431 -1.11656,2.8875 -0.28674,0.42429 -0.53112,0.70269 -1.13275,1.29043 -0.29723,0.29037 -0.54006,0.54349 -0.53963,0.5625 4.2e-4,0.0191 0.10862,0.0839 0.24124,0.14466 2.11999,0.97056 4.34353,1.65821 6.83298,2.11314 0.18562,0.0339 0.3825,0.0561 0.4375,0.0493 0.055,-0.007 0.21702,-0.0515 0.36005,-0.0993 z m -10.21275,-1.06896 c 0.0535,-0.0162 0.10977,-0.0498 0.125,-0.0748 0.023,-0.0377 0.0149,-0.056 -0.0473,-0.10764 -0.19964,-0.16572 -0.57188,-0.29288 -1.0625,-0.36296 -0.36145,-0.0516 -1.9246,-0.0447 -2.55,0.0113 -0.65534,0.0587 -1.43858,0.15703 -1.85,0.2323 -0.34118,0.0624 -0.73487,0.15844 -0.71816,0.17515 0.005,0.005 0.0983,-0.007 0.20737,-0.0256 0.48206,-0.0842 0.77928,-0.10167 1.71079,-0.10035 0.9955,0.001 1.14542,0.0115 2.375,0.16077 0.33687,0.0409 0.70812,0.0842 0.825,0.0963 0.31104,0.0322 0.87163,0.0296 0.9848,-0.005 z m 1.87591,-0.28859 c -0.0374,-0.14392 -0.0607,-0.30383 -0.0607,-0.41619 v -0.18247 l -0.21512,-0.11631 c -0.11832,-0.064 -0.21895,-0.11249 -0.22363,-0.10781 -0.0137,0.0137 0.20041,0.50435 0.28904,0.66224 0.10044,0.17893 0.25333,0.41206 0.26354,0.40185 0.004,-0.004 -0.0197,-0.11276 -0.0531,-0.24131 z m -39.92321,-1.25694 c 0.0825,-0.12537 0.16919,-0.25766 0.19264,-0.29397 l 0.0426,-0.066 -0.23813,-0.15795 c -0.24166,-0.16031 -0.85203,-0.50331 -0.89563,-0.50331 -0.0131,0 0.0109,0.0366 0.0533,0.0812 0.13211,0.13921 0.16811,0.2356 0.16572,0.44375 -0.001,0.1127 -0.0218,0.24861 -0.0515,0.3407 l -0.0494,0.15321 0.27768,0.11218 c 0.15272,0.0617 0.29455,0.11352 0.31518,0.11515 0.0213,0.002 0.10215,-0.0953 0.1875,-0.22499 z m 40.08635,0.10021 c 0.0475,-0.07 0.25843,-0.29122 0.46875,-0.49162 0.21032,-0.20041 0.3824,-0.37192 0.3824,-0.38114 0,-0.009 -0.0668,-0.0228 -0.1484,-0.0302 -0.21628,-0.0196 -0.48914,-0.15885 -0.69643,-0.35537 -0.60281,-0.57152 -0.9532,-1.82462 -1.10769,-3.96135 -0.0238,-0.32912 -0.0374,-0.42088 -0.0556,-0.375 -0.14946,0.37657 -0.23549,0.49258 -0.43678,0.58895 -0.0784,0.0376 -0.1457,0.0703 -0.14948,0.0727 -0.0102,0.007 0.32987,2.05307 0.45888,2.76154 0.11482,0.63057 0.30289,1.50123 0.37974,1.75796 l 0.0435,0.14547 0.36236,0.19682 c 0.1993,0.10825 0.37361,0.19719 0.38736,0.19764 0.0137,4.5e-4 0.0639,-0.0564 0.11135,-0.12643 z m -1.4713,-0.94934 c -0.13852,-0.62614 -0.25452,-1.25419 -0.46779,-2.53279 -0.11714,-0.70226 -0.22394,-1.32746 -0.23732,-1.38933 -0.0228,-0.10514 -0.034,-0.11715 -0.17163,-0.18352 -0.20691,-0.0998 -0.43221,-0.3111 -0.5181,-0.48601 -0.17291,-0.35212 -0.0173,-0.79037 0.31209,-0.87907 0.30302,-0.0816 0.51177,0.20023 0.67949,0.91735 0.0169,0.0722 0.0443,0.13125 0.061,0.13125 0.0546,0 0.16549,-0.1395 0.21548,-0.27105 0.0918,-0.24172 0.12743,-0.55945 0.14182,-1.26645 0.021,-1.0319 -0.0416,-2.22389 -0.15329,-2.91737 -0.0937,-0.58214 -0.29281,-1.17841 -0.51181,-1.53306 -0.51821,-0.83919 -1.52776,-1.46389 -2.94614,-1.82303 -0.54492,-0.13797 -0.96368,-0.18936 -2.05638,-0.25236 -0.67611,-0.039 -1.16603,-0.0884 -1.44201,-0.14552 l -0.15452,-0.032 -0.37048,0.25691 c -0.51112,0.35444 -0.9617,0.6196 -1.52049,0.89477 -0.26125,0.12865 -0.73938,0.36379 -1.0625,0.52252 -0.32313,0.15874 -0.61374,0.30972 -0.64582,0.33553 l -0.0583,0.0469 0.45832,0.11869 c 2.00745,0.51985 3.35307,0.99898 4.01338,1.42902 0.12096,0.0788 0.30558,0.2289 0.41026,0.3336 0.43152,0.4316 0.67714,0.94349 1.13498,2.36536 0.41281,1.28202 0.76912,2.14404 1.19869,2.9 0.71757,1.26279 1.5955,2.25482 2.80745,3.17228 0.22374,0.16938 0.93543,0.64418 0.94749,0.63212 0.006,-0.006 -0.0232,-0.16073 -0.0639,-0.34478 z m -38.43712,-1.43375 c 0.0404,-0.1547 0.0378,-0.17262 -0.0221,-0.14966 -0.0603,0.0231 -0.10126,0.14887 -0.082,0.25163 0.0221,0.11778 0.0551,0.0854 0.10405,-0.10197 z m 42.31752,-0.96881 c 0.23144,-0.68781 0.33789,-1.43824 0.3095,-2.18206 -0.0163,-0.42651 -0.0633,-0.78879 -0.0949,-0.73217 -0.0373,0.0666 -0.16839,0.55218 -0.23484,0.86967 -0.12024,0.57456 -0.14163,0.79619 -0.12421,1.2875 0.009,0.26001 0.005,0.56083 -0.0102,0.7125 -0.0144,0.14437 -0.0326,0.33 -0.0405,0.4125 l -0.0144,0.15 0.0615,-0.13044 c 0.0338,-0.0717 0.10045,-0.24611 0.14803,-0.3875 z m -4.79726,-2.39988 c -0.0337,-0.0992 -0.0713,-0.19031 -0.0835,-0.20252 -0.0328,-0.0328 -0.0586,0.0715 -0.0394,0.159 0.0168,0.0763 0.1242,0.22384 0.16298,0.22384 0.0117,0 -0.006,-0.0811 -0.04,-0.18032 z m -22.16611,-0.2042 c 0.0649,-0.0327 0.21354,-0.0828 0.33042,-0.11128 0.39067,-0.0952 0.66997,-0.11509 1.61797,-0.11534 0.49801,-1.4e-4 0.89176,-0.008 0.875,-0.0167 -0.0168,-0.009 -0.14935,-0.0454 -0.29466,-0.0808 -0.62768,-0.153 -1.31496,-0.26466 -1.96081,-0.31856 -0.43988,-0.0367 -1.5174,-0.0151 -1.9125,0.0384 -0.31674,0.0429 -0.74487,0.12798 -0.84699,0.16836 l -0.0655,0.0259 0.1,0.0358 c 0.25032,0.0895 1.78967,0.42701 1.96958,0.43186 0.0383,0.001 0.12265,-0.0249 0.1875,-0.0576 z m -13.04366,-0.45298 c 0.37947,-0.7557 0.62992,-1.30986 0.64253,-1.4217 0.0105,-0.0935 0.004,-0.11444 -0.052,-0.15826 -0.0622,-0.0489 -0.43825,-0.1837 -0.61641,-0.22095 l -0.0875,-0.0183 0.10848,0.11771 c 0.20085,0.21793 0.25993,0.44887 0.19443,0.75991 -0.0431,0.20463 -0.18772,0.52178 -0.47272,1.03661 l -0.191,0.34502 0.13041,-0.008 0.1304,-0.008 z m 44.97408,-2.38468 c 0.57944,-0.0897 1.2,-0.26742 1.2,-0.34364 0,-0.0617 -0.12324,-0.60992 -0.22408,-0.99668 -0.32303,-1.23902 -0.70525,-1.99517 -1.27061,-2.51371 -0.57764,-0.52979 -1.3473,-0.77215 -2.10596,-0.66315 -0.28346,0.0407 -0.5251,0.11526 -1.45822,0.4498 -0.35255,0.1264 -0.6582,0.18974 -0.91316,0.18923 -0.21393,-4.3e-4 -0.57541,-0.0761 -0.76364,-0.15988 -0.10554,-0.047 -0.15589,-0.0582 -0.175,-0.0391 -0.0358,0.0359 -0.0283,1.02892 0.0106,1.40393 0.10008,0.96345 0.40236,1.53815 1.03258,1.96316 0.48886,0.32969 1.39875,0.61031 2.32994,0.7186 0.17875,0.0208 0.36437,0.0425 0.4125,0.0482 0.0481,0.006 0.425,0.007 0.8375,0.003 0.60894,-0.006 0.81348,-0.0173 1.0875,-0.0597 z m -46.9,-0.56532 c 0,-0.0344 -0.0112,-0.0625 -0.025,-0.0625 -0.0279,0 -0.0343,0.0824 -0.008,0.10833 0.0275,0.0276 0.0333,0.0196 0.0333,-0.0458 z m 48.73432,-0.13894 c 0.18361,-0.16782 0.34602,-0.41631 0.43268,-0.66202 0.0654,-0.18536 0.0701,-0.22482 0.0686,-0.57404 -0.001,-0.33328 -0.009,-0.40003 -0.0694,-0.6 -0.1513,-0.50159 -0.41842,-0.94226 -0.80318,-1.325 -0.53168,-0.52889 -1.02339,-0.8052 -2.41299,-1.35594 -0.94996,-0.3765 -1.17166,-0.49663 -1.42198,-0.77051 -0.20075,-0.21966 -0.29487,-0.43006 -0.41456,-0.92674 -0.0937,-0.38895 -0.17555,-0.61072 -0.35413,-0.95984 -0.39532,-0.77288 -0.94686,-1.27641 -1.47808,-1.34939 -0.64155,-0.0881 -1.47941,0.34745 -1.90496,0.99036 -0.0711,0.10736 -0.15079,0.27594 -0.20099,0.425 -0.0753,0.22341 -0.0843,0.28182 -0.0947,0.61018 -0.0127,0.4026 0.0365,0.74884 0.15462,1.08705 0.0567,0.16227 0.0612,0.16818 0.0629,0.0823 0.006,-0.29308 0.15611,-0.62533 0.38854,-0.85933 0.21491,-0.21637 0.3617,-0.29638 0.54559,-0.29737 0.13457,-7.2e-4 0.15277,0.006 0.21973,0.0809 0.10044,0.11234 0.0971,0.25014 -0.0146,0.61067 -0.23681,0.76379 -0.24487,0.80829 -0.24748,1.36656 l -0.002,0.50886 0.15485,0.0938 c 0.25916,0.15698 0.473,0.21348 0.80765,0.2134 0.32897,-8e-5 0.39082,-0.0158 1.1,-0.27978 0.69985,-0.26049 0.92071,-0.31894 1.34548,-0.35609 1.24844,-0.10917 2.37347,0.53304 3.03469,1.7323 0.30917,0.56075 0.60624,1.45148 0.83277,2.49697 0.0486,0.22448 0.0454,0.22427 0.27138,0.0177 z m -42.98432,-0.15958 c 0.59009,-0.0724 1.30699,-0.23809 1.30471,-0.30148 -0.001,-0.0344 -0.28531,-0.10437 -0.60295,-0.14858 -1.07761,-0.14999 -2.66623,-0.0882 -4.23926,0.16476 -0.26125,0.042 -0.49024,0.0848 -0.50887,0.0951 -0.037,0.0204 -0.0429,0.0196 0.79637,0.11537 1.00976,0.11528 1.31487,0.13304 2.1375,0.12441 0.52219,-0.005 0.8851,-0.0216 1.1125,-0.0496 z m -50.22657,-1.94051 c 3.41601,-0.0135 6.21526,-0.0288 6.22056,-0.0341 0.0145,-0.0145 -0.17109,-0.64184 -0.34232,-1.15746 -0.89473,-2.69419 -2.07068,-4.70662 -3.63891,-6.22739 -1.90096,-1.84341 -4.26948,-2.98675 -6.91846,-3.33967 -0.79527,-0.10595 -1.13349,-0.12606 -2.1068,-0.12526 -0.96284,7.9e-4 -1.32418,0.0244 -2.1,0.13726 -1.88661,0.27443 -3.59582,0.91072 -4.84884,1.80509 -1.17774,0.84065 -2.2597,2.05238 -3.13071,3.50624 -0.83445,1.39283 -1.70609,3.3319 -2.15737,4.79935 -0.12318,0.40055 -0.14029,0.47828 -0.10918,0.49591 0.0736,0.0417 0.48009,0.0915 0.97022,0.11885 1.2893,0.0719 4.39122,0.0755 18.16181,0.0212 z m 75.47586,-2.70822 c 0.47498,-0.36419 0.58089,-0.38869 1.20849,-0.27961 0.58044,0.10088 0.66714,0.0853 0.7757,-0.13932 0.15157,-0.31363 0.3662,-1.19903 0.41971,-1.73143 0.063,-0.62669 -0.0715,-1.16855 -0.3836,-1.54515 -0.36028,-0.43477 -1.10021,-0.70449 -2.02145,-0.73685 -0.75922,-0.0267 -1.11629,0.0988 -1.28261,0.45057 -0.14283,0.30213 -0.20835,0.98618 -0.16598,1.73273 0.0828,1.45894 0.31241,2.074 0.88035,2.35826 0.11049,0.0553 0.22225,0.10055 0.24836,0.10055 0.0261,0 0.17058,-0.0944 0.32103,-0.20975 z m 9.97607,-0.92885 c 0.0301,-0.0905 0.0499,-0.1695 0.0439,-0.17549 -0.0167,-0.0167 -0.15522,0.16413 -0.2218,0.28959 -0.0484,0.0913 -0.0593,0.14893 -0.059,0.312 7.6e-4,0.33434 0.0321,0.33972 0.11205,0.0192 0.0385,-0.15442 0.0947,-0.35482 0.12483,-0.44535 z"
         id="path18" /></g></g></svg>
