<?xml version="1.0" encoding="UTF-8" standalone="no"?>
<!-- Created with Inkscape (http://www.inkscape.org/) -->

<svg
   width="1312.207"
   height="203.18364"
   viewBox="0 0 1312.2071 203.18364"
   version="1.1"
   id="svg1"
   xml:space="preserve"
   inkscape:version="1.3.1 (9b9bdc1480, 2023-11-25, custom)"
   sodipodi:docname="hero-section-image v6-nobg.svg"
   xmlns:inkscape="http://www.inkscape.org/namespaces/inkscape"
   xmlns:sodipodi="http://sodipodi.sourceforge.net/DTD/sodipodi-0.dtd"
   xmlns="http://www.w3.org/2000/svg"
   xmlns:svg="http://www.w3.org/2000/svg"><sodipodi:namedview
     id="namedview1"
     pagecolor="#ffffff"
     bordercolor="#000000"
     borderopacity="0.25"
     inkscape:showpageshadow="2"
     inkscape:pageopacity="0.0"
     inkscape:pagecheckerboard="0"
     inkscape:deskcolor="#d1d1d1"
     inkscape:document-units="px"
     inkscape:lockguides="false"
     showgrid="false"
     inkscape:zoom="0.66979167"
     inkscape:cx="780.09331"
     inkscape:cy="441.18196"
     inkscape:window-width="1862"
     inkscape:window-height="1011"
     inkscape:window-x="0"
     inkscape:window-y="0"
     inkscape:window-maximized="1"
     inkscape:current-layer="layer3"
     showguides="false"><inkscape:grid
       id="grid9"
       units="px"
       originx="0.470418"
       originy="-219.0145"
       spacingx="1"
       spacingy="1"
       empcolor="#0099e5"
       empopacity="0.30196078"
       color="#0099e5"
       opacity="0.14901961"
       empspacing="5"
       dotted="false"
       gridanglex="30"
       gridanglez="30"
       visible="false" /></sodipodi:namedview><defs
     id="defs1"><inkscape:path-effect
       effect="bspline"
       id="path-effect44"
       is_visible="true"
       lpeversion="1.3"
       weight="33.333333"
       steps="2"
       helper_size="0"
       apply_no_weight="true"
       apply_with_weight="true"
       only_selected="false"
       uniform="false" /><inkscape:path-effect
       effect="spiro"
       id="path-effect43"
       is_visible="true"
       lpeversion="1" /><inkscape:path-effect
       effect="spiro"
       id="path-effect41"
       is_visible="true"
       lpeversion="1" /><inkscape:path-effect
       effect="spiro"
       id="path-effect9"
       is_visible="true"
       lpeversion="1" /><inkscape:path-effect
       effect="spiro"
       id="path-effect8"
       is_visible="true"
       lpeversion="1" /><inkscape:path-effect
       effect="bspline"
       id="path-effect44-1"
       is_visible="true"
       lpeversion="1.3"
       weight="33.333333"
       steps="2"
       helper_size="0"
       apply_no_weight="true"
       apply_with_weight="true"
       only_selected="false"
       uniform="false" /><inkscape:path-effect
       effect="bspline"
       id="path-effect85"
       is_visible="true"
       lpeversion="1.3"
       weight="33.333333"
       steps="2"
       helper_size="0"
       apply_no_weight="true"
       apply_with_weight="true"
       only_selected="false"
       uniform="false" /><inkscape:path-effect
       effect="bspline"
       id="path-effect84"
       is_visible="true"
       lpeversion="1.3"
       weight="33.333333"
       steps="2"
       helper_size="0"
       apply_no_weight="true"
       apply_with_weight="true"
       only_selected="false"
       uniform="false" /><inkscape:path-effect
       effect="simplify"
       id="path-effect82"
       is_visible="true"
       lpeversion="1.3"
       threshold="17.2414"
       steps="1"
       smooth_angles="360"
       helper_size="0"
       simplify_individual_paths="false"
       simplify_just_coalesce="false" /><inkscape:path-effect
       effect="spiro"
       id="path-effect1"
       is_visible="true"
       lpeversion="1" /><filter
       inkscape:label="Marbled Ink"
       inkscape:menu="Image Paint and Draw"
       inkscape:menu-tooltip="Marbled transparency effect which conforms to image detected edges"
       style="color-interpolation-filters:sRGB"
       id="filter56"
       x="-0.040685408"
       y="-0.059433796"
       width="1.0813707"
       height="1.118868"><feGaussianBlur
         in="SourceGraphic"
         stdDeviation="1.5"
         result="result3"
         id="feGaussianBlur54" /><feComponentTransfer
         result="result1"
         in="result3"
         id="feComponentTransfer54"><feFuncR
           type="discrete"
           tableValues="0 0.1 0.2 0.3 0.4 0.5 0.6 0.7 0.8 0.9 1"
           id="feFuncR54" /><feFuncG
           type="discrete"
           tableValues="0 0.1 0.2 0.3 0.4 0.5 0.6 0.7 0.8 0.9 1"
           id="feFuncG54" /><feFuncB
           type="discrete"
           tableValues="0 0.1 0.2 0.3 0.4 0.5 0.6 0.7 0.8 0.9 1"
           id="feFuncB54" /></feComponentTransfer><feGaussianBlur
         result="result5"
         stdDeviation="0.01"
         id="feGaussianBlur55" /><feBlend
         in2="result5"
         result="result6"
         mode="lighten"
         in="result5"
         id="feBlend55" /><feColorMatrix
         in="result6"
         type="luminanceToAlpha"
         result="result2"
         id="feColorMatrix55" /><feSpecularLighting
         surfaceScale="5"
         result="result9"
         specularExponent="20"
         in="result2"
         specularConstant="1"
         id="feSpecularLighting55"><feDistantLight
           azimuth="180"
           elevation="90"
           id="feDistantLight55" /></feSpecularLighting><feComposite
         in2="result6"
         operator="arithmetic"
         in="result9"
         k1="0.4"
         k3="0.7"
         result="result3"
         id="feComposite55"
         k2="0"
         k4="0" /><feBlend
         in2="result1"
         in="result3"
         mode="normal"
         result="result8"
         id="feBlend56" /><feComposite
         in2="SourceGraphic"
         in="result8"
         operator="in"
         result="fbSourceGraphic"
         id="feComposite56" /><feColorMatrix
         result="fbSourceGraphicAlpha"
         in="fbSourceGraphic"
         values="0 0 0 -1 0 0 0 0 -1 0 0 0 0 -1 0 0 0 0 1 0"
         id="feColorMatrix56" /><feGaussianBlur
         id="feGaussianBlur56"
         result="result9"
         in="fbSourceGraphic"
         stdDeviation="2" /><feTurbulence
         id="feTurbulence56"
         baseFrequency="0.06"
         numOctaves="10"
         type="fractalNoise"
         result="result7"
         seed="0" /><feColorMatrix
         id="feColorMatrix57"
         values="1 0 0 0 0 0 1 0 0 0 0 0 1 0 0 0 0 0 1.5 -0.3 "
         result="result5" /><feComposite
         id="feComposite57"
         in="result9"
         operator="out"
         result="result6"
         in2="result5" /><feGaussianBlur
         id="feGaussianBlur57"
         result="result10"
         stdDeviation="0.5" /><feDisplacementMap
         id="feDisplacementMap57"
         result="result4"
         scale="120"
         yChannelSelector="G"
         xChannelSelector="A"
         in2="result10"
         in="result5" /><feComposite
         id="feComposite58"
         in="result9"
         operator="in"
         result="result2"
         in2="result4" /><feComposite
         id="feComposite59"
         in2="fbSourceGraphic"
         operator="in"
         in="result2"
         result="fbSourceGraphic" /><feBlend
         id="feBlend59"
         in2="result2"
         mode="multiply" /></filter><filter
       inkscape:label="Flex Metal"
       inkscape:menu="Materials"
       inkscape:menu-tooltip="Bright, polished uneven metal casting, colorizable"
       height="1.1478164"
       y="-0.073908001"
       width="1.1011872"
       x="-0.050593682"
       style="color-interpolation-filters:sRGB"
       id="filter64"><feGaussianBlur
         stdDeviation="5"
         result="result8"
         id="feGaussianBlur61" /><feTurbulence
         seed="25"
         result="result7"
         type="turbulence"
         numOctaves="2"
         baseFrequency="0.03"
         id="feTurbulence61" /><feComposite
         in2="result8"
         result="result6"
         operator="in"
         in="result8"
         id="feComposite61" /><feDisplacementMap
         in="result7"
         in2="result6"
         xChannelSelector="A"
         yChannelSelector="A"
         scale="120"
         result="result4"
         id="feDisplacementMap61" /><feComposite
         in2="result4"
         result="result2"
         operator="arithmetic"
         in="SourceGraphic"
         k1="2"
         k3="2.5"
         k2="0.25"
         id="feComposite62"
         k4="0" /><feComposite
         result="fbSourceGraphic"
         in="result2"
         operator="in"
         in2="SourceGraphic"
         id="feComposite63" /><feBlend
         mode="screen"
         in2="fbSourceGraphic"
         result="result91"
         id="feBlend63" /><feBlend
         mode="multiply"
         in2="result91"
         id="feBlend64" /></filter></defs><g
     inkscape:label="Laag 1"
     inkscape:groupmode="layer"
     id="layer1"
     style="display:inline"
     transform="translate(0.47041799,-219.01451)" /><g
     inkscape:groupmode="layer"
     id="layer3"
     inkscape:label="skyline"
     transform="translate(0.47041799,-219.01451)"><path
       id="path10"
       style="opacity:0.5;fill:#dedede;fill-opacity:1;stroke:#000000;stroke-width:0.502;stroke-dasharray:none;stroke-opacity:0.504847"
       d="m 494.0641,219.26551 c -2.9508,0 -3.5899,3.84214 -3.5899,21.56445 0,12.03642 -1.0585,22.15794 -2.3945,22.90625 -1.3165,0.73737 -2.3926,6.16355 -2.3926,12.0586 0,7.53487 -0.9563,10.71874 -3.2207,10.71874 -3.1934,0 -6.3177,33.74676 -6.3437,68.51172 -0.01,7.25799 -0.6759,13.801 -1.4903,14.53907 -0.8145,0.73808 -1.6238,7.00036 -1.7968,13.91797 l -0.3145,12.57812 -13.7637,0.65039 -13.7617,0.65039 -0.053,-10.41211 c -0.035,-6.93721 -1.6034,-12.22078 -4.6973,-15.83398 l -4.6445,-5.42383 -3.8164,4.88086 c -3.1591,4.04021 -6.0605,4.88086 -16.8457,4.88086 h -13.0293 v 10.71875 c 0,5.89504 -1.0761,11.32122 -2.3926,12.05859 -1.5164,0.84934 -2.3945,-4.76593 -2.3945,-15.32226 0,-14.0502 -0.527,-16.26755 -3.3574,-14.13868 -2.6764,2.01297 -4.3609,1.2453 -8.31645,-3.78906 -2.72869,-3.47289 -6.20563,-9.12762 -7.72656,-12.56445 l -2.76563,-6.24805 -2.23437,7.3418 c -1.22852,4.03861 -3.78084,8.74519 -5.67188,10.45898 -1.89105,1.71379 -3.4375,4.02299 -3.4375,5.13086 0,3.0079 -6.59685,2.43223 -7.99023,-0.69726 -0.66402,-1.49137 -1.29255,4.3657 -1.39649,13.01562 -0.10723,8.9244 -1.22376,15.72656 -2.58203,15.72656 -1.31649,0 -2.39453,-4.3343 -2.39453,-9.63281 0,-5.29849 -1.07609,-10.23724 -2.39258,-10.97461 -1.31649,-0.73737 -2.39453,-4.09881 -2.39453,-7.4707 0,-3.37189 -1.4778,-9.31737 -3.28516,-13.21289 l -3.28711,-7.08399 -2.85937,7.85547 c -1.57318,4.32 -2.51805,10.07927 -2.09961,12.79883 1.19566,7.77099 -9.57784,8.12153 -16.25781,0.5293 l -5.21094,-5.92383 -3.17383,5.16992 c -1.74502,2.84316 -3.81659,10.53761 -4.60351,17.09961 l -1.42969,11.93164 -5.82422,-11.27539 -5.82422,-11.27734 -22.74023,-0.6543 -22.73829,-0.65625 -1.44726,-16.26758 c -0.79585,-8.94818 -2.10171,-17.7338 -2.90039,-19.52344 -0.79868,-1.78963 -2.56237,-12.66771 -3.91992,-24.17187 -1.35754,-11.50416 -3.42356,-23.2183 -4.5918,-26.03125 -1.96169,-4.72344 -2.35916,-4.36694 -5.18945,4.64844 -1.68553,5.3689 -3.31617,13.66513 -3.625,18.4375 -0.64314,9.93845 -2.08767,18.9402 -5.70313,35.54687 -1.39913,6.42658 -2.54297,21.8014 -2.54297,34.16602 v 22.48047 h -16.75586 c -12.23042,0 -16.75586,-0.76834 -16.75586,-2.84571 0,-1.56526 -3.13044,-4.94388 -6.95703,-7.50781 -4.25536,-2.85124 -8.45658,-8.74868 -10.8164,-15.1875 -4.96509,-13.5473 -12.19661,-47.97322 -15.59571,-74.24414 -4.50287,-34.80182 -4.47378,-34.70898 -10.75,-34.70898 -4.8065,0 -5.83331,1.38892 -7.21875,9.76172 -1.94026,11.72585 -4.83553,12.38459 -9.54492,2.16992 -3.86792,-8.38953 -9.43416,-9.83316 -13.21679,-3.42774 -1.3527,2.29064 -6.04562,5.23816 -10.42774,6.54883 l -7.9668,2.38281 -3.12304,39.00586 c -2.5757,32.17805 -3.75636,39.00782 -6.75196,39.00782 -3.02632,0 -3.3706,-2.25948 -2.06054,-13.5586 0.86456,-7.45682 2.26436,-27.95658 3.10937,-45.55469 l 1.53516,-31.99609 h -7.22071 c -3.97126,0 -12.216258,-0.62214 -18.324208,-1.38086 l -11.10547,-1.37891 v 8 c 0,4.39989 -2.09159,11.60929 -4.64649,16.02149 -2.92094,5.04434 -6.09632,18.49025 -8.55664,36.22266 -6.60975,47.6389 -9.37501,56.03345 -21.6875,65.85546 l -10.58984,8.44727 v 16.66211 H 655.6341 1311.4856 v -13.95508 h -69.414 -69.416 v -56.40039 -56.40234 h 13.166 13.164 v 53.14843 53.14649 h 51.4629 51.4629 v -9.76172 -9.76172 h -32.3144 -32.3125 v -52.0625 -52.0625 h -50.2676 -50.2656 v 63.99414 63.99219 h -10.7715 -10.7715 v -33.80469 c 0,-18.59234 -0.8076,-33.47778 -1.7949,-33.08008 -0.9874,0.39769 -15.7977,13.90108 -32.9121,30.00782 -27.3465,25.73637 -39.4942,34.65485 -39.4942,28.99609 0,-0.921 3.4427,-4.89378 7.6504,-8.82813 l 7.6504,-7.15234 h -11.2422 c -8.2946,0 -11.2402,-0.83624 -11.2402,-3.18945 0,-2.60724 -5.5616,-3.30052 -30.4883,-3.79688 -26.8222,-0.53411 -30.5864,-1.06273 -31.293,-4.40234 -0.7306,-3.45275 1.9201,-3.79688 29.293,-3.79688 16.5526,0 30.0957,-0.79885 30.0957,-1.77539 0,-0.97655 -1.6515,-6.81085 -3.668,-12.96484 l -3.666,-11.18945 -40.748,-0.5918 -40.75,-0.59375 -0.709,-24.94727 c -0.3899,-13.72054 -1.5217,-26.65428 -2.5156,-28.74218 -1.5469,-3.24924 -5.22,-3.79688 -25.4883,-3.79688 -19.4533,0 -23.6797,-0.58084 -23.6797,-3.2539 0,-2.66401 4.1232,-3.25391 22.7402,-3.25391 21.1436,0 22.7383,-0.30384 22.7383,-4.33789 0,-2.87549 -1.5961,-4.33789 -4.7324,-4.33789 -2.6026,0 -6.5876,-2.56621 -8.8555,-5.70313 -3.9639,-5.48258 -4.7758,-5.65874 -20.998,-4.53515 -9.2817,0.64288 -22.571,3.20907 -29.5313,5.70312 -6.9603,2.49404 -16.8576,4.53516 -21.9941,4.53516 -9.3389,0 -9.3404,-8.6e-4 -10.8145,10.30273 -0.8108,5.66719 -1.9744,12.50109 -2.5859,15.18555 -1.0995,4.82723 -0.8222,4.88086 25.2637,4.88086 24.7796,0 26.3769,0.26185 26.3769,4.33789 0,4.07418 -1.5968,4.33984 -26.1933,4.33984 H 835.431 l 0.3593,38.50391 c 0.2634,28.1505 -0.5775,41.41989 -3.1289,49.34961 l -3.4902,10.84765 h -14.2813 -14.2812 l 0.6875,-10.14648 c 0.7557,-11.13714 -3.7733,-15.68695 -13.3555,-13.41602 -2.6973,0.63923 -5.6291,0.10173 -6.5136,-1.19531 -2.7898,-4.09079 -6.1114,-2.56156 -6.1114,2.8125 0,8.97318 -19.2332,10.56969 -41.957,3.48438 -16.2377,-5.06295 -18.3515,-3.86963 -17.334,9.7832 0.5979,8.02291 0.1507,8.72863 -5.9355,9.36328 l -6.584,0.6875 -0.072,-25.63281 c -0.046,-16.20033 -0.8641,-24.41069 -2.2226,-22.30859 -3.0409,4.70548 -21.5283,3.08129 -21.918,-1.92579 -0.2387,-3.0685 -0.4318,-3.03593 -1.3731,0.22852 -1.2626,4.37881 -6.951,5.08474 -8.7324,1.08398 -0.664,-1.49136 -1.2926,8.75851 -1.3965,22.77735 l -0.1894,25.48828 H 643.775 619.9469 l -1.502,-7.24805 c -1.481,-7.15446 -1.6443,-7.23672 -12.6738,-6.375 -15.2757,1.19346 -17.1582,1.96567 -17.1582,7.04688 0,3.66292 -1.5487,4.40625 -9.1758,4.40625 -11.5173,0 -12.4743,-0.91585 -9.1894,-8.80274 1.8716,-4.49366 4.2752,-6.38086 8.1191,-6.38086 3.2569,0 5.459,-1.31267 5.459,-3.2539 0,-2.45849 -2.9262,-3.25391 -11.9688,-3.25391 -9.0425,0 -11.9687,-0.79541 -11.9687,-3.25391 0,-2.45848 2.9262,-3.2539 11.9687,-3.2539 8.9742,0 11.9688,-0.80399 11.9688,-3.21289 0,-1.76691 -2.6932,-3.82561 -5.9844,-4.57422 -8.1327,-1.84985 -8.1327,-8.27612 0,-6.86719 8.9558,1.55153 7.2108,-1.99624 -2.3945,-4.86914 -7.8073,-2.3351 -11.8669,-8.67773 -5.5547,-8.67773 7.4582,0 35.4746,9.83834 35.4746,12.45703 0,2.19032 -2.1907,2.55196 -8.7226,1.4414 -10.913,-1.85538 -9.0695,2.37887 3.0312,6.96094 9.6032,3.63638 11.1528,9.44111 2.1016,7.87305 -5.1498,-0.89217 -5.9844,-0.24605 -5.9844,4.63867 0,5.30035 0.7297,5.67578 11.0254,5.67578 h 11.0254 l -1.7168,-20.06445 c -0.945,-11.0361 -1.8687,-20.13571 -2.0508,-20.22071 -0.1821,-0.085 -12.3033,-4.79013 -26.9375,-10.45507 -25.7581,-9.97106 -26.8733,-10.19836 -34.9277,-7.14844 -8.2773,3.13432 -8.3357,3.25464 -11.377,23.42383 -1.6814,11.15034 -3.5824,21.51252 -4.2246,23.02929 -0.6494,1.53368 -5.0452,2.75782 -9.9024,2.75782 -12.2087,0 -15.1115,-6.71329 -14.5136,-33.57617 0.2546,-11.43874 -0.2186,-21.41585 -1.0528,-22.17188 -0.8343,-0.75604 -1.5175,-8.66986 -1.5175,-17.58594 0,-11.32222 -1.0136,-16.93705 -3.3594,-18.61914 -2.8872,-2.07037 -8.6094,-43.34666 -8.6094,-62.10351 0,-2.37386 -1.6066,-4.29883 -3.5898,-4.29883 z"
       sodipodi:nodetypes="ssssscssccccccsscssssscccsssssssscccsccccccccccssssssscssssssssssccssccsccsssccccccccccccccccccccccccccccssssccssssssccccssssssssssssssssccsccccssssscccsssscccccssssssssssssssssssssccssssssssssss" /></g></svg>
